<?xml version="1.0" encoding="UTF-8"?>
<svg version="1.1" xmlns="http://www.w3.org/2000/svg" width="831" height="300">
<path d="M0 0 C2.74793409 1.33809728 5.04208933 2.7002411 7.3984375 4.65234375 C8.03515381 5.17562256 8.67187012 5.69890137 9.32788086 6.23803711 C10.00343018 6.79885986 10.67897949 7.35968262 11.375 7.9375 C12.82082144 9.12596555 14.26744978 10.31345009 15.71484375 11.5 C16.43784668 12.09296875 17.16084961 12.6859375 17.90576172 13.296875 C20.88408846 15.71897891 23.90732027 18.08084057 26.9375 20.4375 C32.94344387 25.11999801 38.81852561 29.9508352 44.68334961 34.80834961 C49.07401729 38.43688987 53.50506644 42.0016337 58 45.5 C63.24114385 49.57913505 68.38516509 53.76366072 73.5 58 C79.19144463 62.71303848 84.93324647 67.34453001 90.76171875 71.88671875 C95.91330455 75.90918986 100.9784561 80.0334778 106.04150391 84.16650391 C110.30331048 87.63904898 114.60140148 91.05833357 118.9375 94.4375 C124.94295251 99.12065104 130.81850309 103.95081655 136.68334961 108.80834961 C141.07401729 112.43688987 145.50506644 116.0016337 150 119.5 C155.24114822 123.57913845 160.38505728 127.76378555 165.5 132 C170.80805974 136.39353788 176.14261105 140.74491174 181.5625 145 C182.09746094 145.42023438 182.63242187 145.84046875 183.18359375 146.2734375 C187.41288564 149.57691425 191.70462345 152.77846759 196 156 C196 105.84 196 55.68 196 4 C218.11 4 240.22 4 263 4 C263 100.03 263 196.06 263 295 C258.41073123 293.16429249 256.19900852 291.71481321 252.5625 288.5625 C251.49759695 287.651885 250.43112905 286.7430975 249.36328125 285.8359375 C248.8110791 285.36639648 248.25887695 284.89685547 247.68994141 284.41308594 C244.92883143 282.10431614 242.09078899 279.89691307 239.25 277.6875 C234.1165523 273.68482426 229.0425239 269.61660591 224 265.5 C219.03770118 261.45015071 214.04845922 257.44194761 209 253.5 C203.95153771 249.55804999 198.9624075 245.54971933 194 241.5 C187.77477367 236.42034135 181.48823807 231.42720134 175.16015625 226.4765625 C170.74398386 223.02111517 166.37234159 219.51063923 162 216 C154.71404406 210.15321875 147.42155083 204.31714326 140.0625 198.5625 C134.30387104 194.05734458 128.62571855 189.45883989 122.96118164 184.83618164 C118.67568562 181.344813 114.35679581 177.90188166 110 174.5 C104.26648413 170.02314514 98.61533907 165.45180567 92.98071289 160.85131836 C87.96313182 156.76221855 82.89540601 152.74247898 77.77929688 148.77734375 C73.73343926 145.62781444 69.90623824 142.34820421 66 139 C65.67 190.48 65.34 241.96 65 295 C60.42865163 293.17146065 57.29868664 291.10358215 53.5625 288.0625 C52.31521317 287.06496786 51.06781417 286.06757595 49.8203125 285.0703125 C48.86946777 284.30509277 48.86946777 284.30509277 47.89941406 283.52441406 C44.929066 281.14049975 41.93377392 278.78868735 38.9375 276.4375 C38.06411987 275.75083252 38.06411987 275.75083252 37.1730957 275.05029297 C32.33965262 271.25426854 27.46960973 267.50700252 22.59375 263.765625 C18.13379276 260.33844588 13.69149933 256.88854673 9.25 253.4375 C8.45045898 252.81705811 7.65091797 252.19661621 6.82714844 251.55737305 C6.0849707 250.98027588 5.34279297 250.40317871 4.578125 249.80859375 C3.91200195 249.29095459 3.24587891 248.77331543 2.55957031 248.23999023 C1 247 1 247 0 246 C-0.09807612 242.83973225 -0.12990232 239.70130003 -0.12025452 236.54063416 C-0.12110894 235.53522585 -0.12196337 234.52981754 -0.12284368 233.49394232 C-0.12450152 230.097425 -0.11897217 226.70095619 -0.11352539 223.30444336 C-0.11324356 220.88068137 -0.11340117 218.45691929 -0.1139679 216.03315735 C-0.11419621 210.80079103 -0.11134486 205.56843585 -0.10573006 200.33607292 C-0.09761718 192.7708721 -0.09500006 185.2056773 -0.09374207 177.6404726 C-0.09155121 165.36765215 -0.08489022 153.09483833 -0.07543945 140.82202148 C-0.0662662 128.89721714 -0.05918494 116.97241458 -0.05493164 105.04760742 C-0.05453756 103.94580014 -0.05453756 103.94580014 -0.05413551 102.82173412 C-0.05283051 99.13692324 -0.05156679 95.45211234 -0.05032361 91.76730144 C-0.03994995 61.17819621 -0.02225661 30.58909902 0 0 Z " fill="#0181CB" transform="translate(566,2)"/>
<path d="M0 0 C2.99458475 1.77551043 5.81195734 3.53068791 8.49609375 5.75 C9.1300708 6.27045898 9.76404785 6.79091797 10.41723633 7.32714844 C11.41726685 8.15520996 11.41726685 8.15520996 12.4375 9 C17.68582062 13.30773758 22.95946505 17.57300495 28.3125 21.75 C33.2718151 25.62651633 38.17298666 29.56424013 43.03515625 33.5625 C51.62436825 40.62398655 60.23777682 47.65384653 69 54.5 C77.44609202 61.10005026 85.73751758 67.88813636 94.04101562 74.66601562 C101.6646846 80.88628628 109.31595824 87.06155194 117.06738281 93.12207031 C121.4383536 96.54445806 125.7472116 100.03643685 130.03515625 103.5625 C139.18479108 111.08472942 148.37783891 118.54593376 157.71240234 125.83764648 C162.16171615 129.32132978 166.55709915 132.86765824 170.9375 136.4375 C176.40379979 140.89112673 181.87742096 145.33500473 187.375 149.75 C188.33007446 150.52041626 188.33007446 150.52041626 189.30444336 151.30639648 C192.48891831 153.89885767 192.48891831 153.89885767 196 156 C196 105.84 196 55.68 196 4 C218.11 4 240.22 4 263 4 C263 100.03 263 196.06 263 295 C259.11956855 293.44782742 257.34059261 292.71771452 254.390625 290.19921875 C253.72708008 289.64081299 253.06353516 289.08240723 252.37988281 288.50708008 C251.67702148 287.90661865 250.97416016 287.30615723 250.25 286.6875 C244.35957722 281.73849529 238.39472152 276.94202721 232.25 272.3125 C226.56722788 268.0206614 221.06160584 263.59241763 215.66430664 258.94799805 C211.58255199 255.45016903 207.36406422 252.15614291 203.08276367 248.90722656 C198.66975226 245.54631076 194.35745877 242.0726793 190.0625 238.5625 C185.07996096 234.49078595 180.07242531 230.45923125 175 226.5 C169.25980746 222.0181114 163.60306483 217.44043222 157.9609375 212.8359375 C153.67548382 209.34469917 149.35670547 205.90181112 145 202.5 C139.9515356 198.55804835 134.96248538 194.5496258 130 190.5 C122.18258923 184.12337912 114.26741611 177.87907588 106.30712891 171.68212891 C98.52707554 165.62449727 90.85066194 159.46401867 83.29956055 153.12182617 C77.68851024 148.44834968 71.94982091 144.32714248 66 140 C65.67 191.15 65.34 242.3 65 295 C60.42860343 293.17144137 57.29874963 291.10349878 53.5625 288.0625 C52.30998698 287.0610839 51.05738027 286.05978498 49.8046875 285.05859375 C49.17014648 284.54796387 48.53560547 284.03733398 47.88183594 283.51123047 C44.99910358 281.19621837 42.09471124 278.90914767 39.1875 276.625 C38.61845947 276.17713135 38.04941895 275.7292627 37.46313477 275.26782227 C32.13177018 271.08168645 26.74294191 266.9721119 21.35229492 262.86279297 C16.54207303 259.19141409 11.75835988 255.48835766 7 251.75 C6.40638672 251.28400391 5.81277344 250.81800781 5.20117188 250.33789062 C1.13211025 247.13211025 1.13211025 247.13211025 0 246 C-0.09807612 242.83973225 -0.12990232 239.70130003 -0.12025452 236.54063416 C-0.12110894 235.53522585 -0.12196337 234.52981754 -0.12284368 233.49394232 C-0.12450152 230.097425 -0.11897217 226.70095619 -0.11352539 223.30444336 C-0.11324356 220.88068137 -0.11340117 218.45691929 -0.1139679 216.03315735 C-0.11419621 210.80079103 -0.11134486 205.56843585 -0.10573006 200.33607292 C-0.09761718 192.7708721 -0.09500006 185.2056773 -0.09374207 177.6404726 C-0.09155121 165.36765215 -0.08489022 153.09483833 -0.07543945 140.82202148 C-0.0662662 128.89721714 -0.05918494 116.97241458 -0.05493164 105.04760742 C-0.05453756 103.94580014 -0.05453756 103.94580014 -0.05413551 102.82173412 C-0.05283051 99.13692324 -0.05156679 95.45211234 -0.05032361 91.76730144 C-0.03994995 61.17819621 -0.02225661 30.58909902 0 0 Z " fill="#0181CB" transform="translate(2,2)"/>
<path d="M0 0 C18.72917619 -0.02789386 37.45831355 -0.05133438 56.1875 -0.0625 C57.24818758 -0.06315145 57.24818758 -0.06315145 58.33030319 -0.06381607 C105.05571455 -0.09172019 151.77633727 0.09600726 198.5 0.5 C199.53861907 0.50896057 199.53861907 0.50896057 200.59822035 0.51810217 C218.06557826 0.66898969 235.53278438 0.83273528 253 1 C253 22.45 253 43.9 253 66 C212.74 66.33 172.48 66.66 131 67 C143.65961119 78.89854139 143.65961119 78.89854139 158.1116066 89.11552143 C160.51817902 91.51710478 160.48878707 93.33490152 160.54249835 96.64804 C160.53473793 97.42138208 160.52697752 98.19472416 160.51898193 98.99150085 C160.53023381 100.2265368 160.53023381 100.2265368 160.541713 101.48652297 C160.56206988 104.25518463 160.553872 107.02303358 160.54589844 109.79174805 C160.55462911 111.77246922 160.56511311 113.75318333 160.57722473 115.73388672 C160.60516725 121.11995668 160.6084876 126.50579745 160.60750484 131.89192939 C160.61062687 137.51742718 160.63623021 143.14282066 160.65948486 148.76826477 C160.70010296 159.42482801 160.72039922 170.08132997 160.73345876 180.73795873 C160.74930914 192.86844513 160.78771646 204.99882694 160.82805204 217.12925279 C160.9105305 242.08613346 160.96457294 267.04301134 161 292 C156.86548557 292 154.87744416 289.8160835 151.8125 287.3125 C151.20027588 286.82209229 150.58805176 286.33168457 149.95727539 285.82641602 C147.96448849 284.22609819 145.98123742 282.61458915 144 281 C143.33645508 280.46020508 142.67291016 279.92041016 141.98925781 279.36425781 C139.28940884 277.16743747 136.58991336 274.97020162 133.89379883 272.76879883 C128.78994943 268.61117908 123.59442107 264.59686582 118.359375 260.60546875 C113.76964352 257.07479986 109.29566568 253.39999734 104.81835938 249.72851562 C104.19251953 249.21611328 103.56667969 248.70371094 102.921875 248.17578125 C102.3322016 247.674656 101.74252821 247.17353075 101.13498592 246.65721989 C99.04879102 244.94571432 99.04879102 244.94571432 96.68417454 243.74163723 C93.86845334 242.07079846 92.03048842 240.58566288 90 238 C88.67173781 232.48850646 88.86043783 227.04215931 88.97827148 221.41625977 C88.98081203 219.7206689 88.97938147 218.02506815 88.97428894 216.32948303 C88.97171113 211.73826223 89.02454408 207.14916629 89.08745456 202.55843854 C89.14379511 197.75659346 89.14900922 192.95469724 89.15968323 188.15257263 C89.18763372 179.06459971 89.26145709 169.97760355 89.35182863 160.89006037 C89.47132772 148.60632891 89.51983433 136.32232949 89.57234859 124.03816319 C89.65692434 104.69137744 89.83623379 85.34665272 90 66 C60.3 66 30.6 66 0 66 C0 44.22 0 22.44 0 0 Z " fill="#0181CB" transform="translate(290,4)"/>
<path d="M0 0 C22.11 0 44.22 0 67 0 C67 96.03 67 192.06 67 291 C65.35 290.34 63.7 289.68 62 289 C62.99 288.67 63.98 288.34 65 288 C65 193.62 65 99.24 65 2 C33.32 1.505 33.32 1.505 1 1 C1 50.83 1 100.66 1 152 C0.67 152 0.34 152 0 152 C0 101.84 0 51.68 0 0 Z " fill="#2680B6" transform="translate(198,6)"/>
<path d="M0 0 C22.11 0 44.22 0 67 0 C67 96.03 67 192.06 67 291 C65.35 290.34 63.7 289.68 62 289 C62.99 288.67 63.98 288.34 65 288 C65 193.29 65 98.58 65 1 C43.88 1 22.76 1 1 1 C1 50.83 1 100.66 1 152 C0.67 152 0.34 152 0 152 C0 101.84 0 51.68 0 0 Z " fill="#2381B6" transform="translate(762,6)"/>
<path d="M0 0 C0.33 0 0.66 0 1 0 C1 51.48 1 102.96 1 156 C-3.95003075 154.0199877 -6.13939157 152.41170047 -10 149 C-6.00095031 149 -4.19799578 150.72586967 -1 153 C-1.00092179 152.21755448 -1.00184359 151.43510897 -1.00279331 150.62895298 C-1.02484712 131.61823618 -1.04141085 112.60752193 -1.05181217 93.59679508 C-1.05697545 84.40347396 -1.06401875 75.21016136 -1.07543945 66.0168457 C-1.08538532 58.00692964 -1.09185319 49.99701975 -1.09408849 41.98709768 C-1.09539577 37.74322747 -1.09848266 33.4993749 -1.10573006 29.25551033 C-1.11248874 25.2657093 -1.11461727 21.2759333 -1.11310768 17.28612709 C-1.11338408 15.81750605 -1.1153901 14.34888421 -1.11920547 12.8802681 C-1.12414028 10.88377224 -1.12239813 8.88726313 -1.12025452 6.89076233 C-1.12117631 5.77078385 -1.1220981 4.65080538 -1.12304783 3.49688816 C-1 1 -1 1 0 0 Z " fill="#217FB5" transform="translate(630,141)"/>
<path d="M0 0 C0.99 0.33 1.98 0.66 3 1 C3.33 67.33 3.66 133.66 4 202 C1 202 1 202 -1.6875 199.5 C-2.450625 198.675 -3.21375 197.85 -4 197 C-2 198 -0 199 2 200 C1.89286058 174.36617362 1.78011723 148.73237723 1.66066074 123.09860516 C1.60532924 111.19701312 1.55184735 99.29541808 1.50268555 87.39379883 C1.45984283 77.02309972 1.4135646 66.65242268 1.36312145 56.28175765 C1.33652124 50.7881078 1.31166815 45.29446232 1.29092598 39.80078697 C1.2713637 34.63396729 1.2472211 29.46718961 1.21950912 24.30040741 C1.21013653 22.40047021 1.202462 20.5005238 1.19658089 18.60057259 C1.18832328 16.01355054 1.17404751 13.42663053 1.15821838 10.83964539 C1.15675122 9.70297795 1.15675122 9.70297795 1.15525442 8.54334754 C1.13059791 5.42571802 0.99365012 2.98095036 0 0 Z " fill="#2483B6" transform="translate(447,94)"/>
<path d="M0 0 C3.75197484 0.93799371 4.92230453 1.47151093 7.75 3.80078125 C8.4409375 4.36603516 9.131875 4.93128906 9.84375 5.51367188 C10.91109375 6.4040918 10.91109375 6.4040918 12 7.3125 C13.06734375 8.18551758 13.06734375 8.18551758 14.15625 9.07617188 C17.59805688 11.91116765 20.92700777 14.75895351 24 18 C21.69 17.67 19.38 17.34 17 17 C17 17.66 17 18.32 17 19 C16.34 18.67 15.68 18.34 15 18 C15.66 16.68 16.32 15.36 17 14 C12.81413519 10.81076967 10.29441695 9.49576981 5 10 C5 9.34 5 8.68 5 8 C4.01 8 3.02 8 2 8 C1.34 8.66 0.68 9.32 0 10 C0 6.7 0 3.4 0 0 Z " fill="#0C7FC6" transform="translate(3,4)"/>
<path d="M0 0 C5.33333333 4 10.66666667 8 16 12 C14.1875 13.5625 14.1875 13.5625 12 15 C11.01 14.67 10.02 14.34 9 14 C9 14.66 9 15.32 9 16 C7.35 16.33 5.7 16.66 4 17 C5.375 15 5.375 15 7 13 C7.66 13 8.32 13 9 13 C9.33 11.68 9.66 10.36 10 9 C8.35 9 6.7 9 5 9 C5 8.01 5 7.02 5 6 C4.34 6 3.68 6 3 6 C3 5.34 3 4.68 3 4 C2.01 3.67 1.02 3.34 0 3 C0 2.01 0 1.02 0 0 Z " fill="#0B81C4" transform="translate(640,61)"/>
<path d="M0 0 C7.45297102 5.51519855 14.72303947 11.256107 22 17 C19 18 19 18 16.875 17.25 C15 16 15 16 14 13 C11.41927097 10.67734388 10.54823932 10 7 10 C5.32900023 9.68911632 3.66128463 9.35919668 2 9 C2.66 7.35 3.32 5.7 4 4 C3.01 4 2.02 4 1 4 C0.67 2.68 0.34 1.36 0 0 Z " fill="#1181C3" transform="translate(66,53)"/>
<path d="M0 0 C2.86198055 0.98125047 4.94890115 1.9585685 7.3125 3.875 C9.68358405 5.74981064 11.52943277 6.7396745 14.25 7.9375 C17.87128713 9.6460396 17.87128713 9.6460396 19 12.75 C19 13.4925 19 14.235 19 15 C14.80340329 13.02243194 11.43239474 10.36775694 7.8125 7.5 C7.17119141 7.00113281 6.52988281 6.50226563 5.86914062 5.98828125 C1.1258915 2.25178299 1.1258915 2.25178299 0 0 Z " fill="#2085B8" transform="translate(404,260)"/>
<path d="M0 0 C2.94844982 2.43567594 3.35383624 4.30763566 4 8 C4.99 9.485 4.99 9.485 6 11 C2.7173068 9.50923566 0.06922559 7.61379679 -2.75 5.375 C-3.54921875 4.74335938 -4.3484375 4.11171875 -5.171875 3.4609375 C-5.77515625 2.97882813 -6.3784375 2.49671875 -7 2 C-4.3333581 0.66667905 -2.83319697 1.32897967 0 2 C0 1.34 0 0.68 0 0 Z " fill="#1382C3" transform="translate(756,233)"/>
<path d="M0 0 C5.66936919 3.58065422 10.80462523 7.7697739 16 12 C13.66666667 12 11.33333333 12 9 12 C9 12.66 9 13.32 9 14 C8.34 13.67 7.68 13.34 7 13 C7.66 11.68 8.32 10.36 9 9 C8.15115234 8.52820313 8.15115234 8.52820313 7.28515625 8.046875 C6.55167969 7.61890625 5.81820313 7.1909375 5.0625 6.75 C4.33160156 6.33234375 3.60070312 5.9146875 2.84765625 5.484375 C0.68142682 3.74406383 0.36405249 2.70438996 0 0 Z " fill="#227EB4" transform="translate(11,9)"/>
<path d="M0 0 C4.53460431 1.13365108 5.90024653 2.64193374 9 6 C6.69 6 4.38 6 2 6 C1.34 7.32 0.68 8.64 0 10 C0 6.7 0 3.4 0 0 Z " fill="#0F7EC2" transform="translate(567,4)"/>
<path d="M0 0 C2.31 0.66 4.62 1.32 7 2 C7 2.66 7 3.32 7 4 C7.763125 4.226875 8.52625 4.45375 9.3125 4.6875 C12.54736301 6.26731682 13.41641358 7.83282717 15 11 C10.80802878 11 8.83707618 8.67382431 5.8125 6.0625 C5.25369141 5.59392578 4.69488281 5.12535156 4.11914062 4.64257812 C2.72161432 3.4566431 1.35766377 2.23136946 0 1 C0 0.67 0 0.34 0 0 Z " fill="#1C83BF" transform="translate(238,276)"/>
<path d="M0 0 C1.65 0 3.3 0 5 0 C5 0.66 5 1.32 5 2 C6.98 1.67 8.96 1.34 11 1 C10.67 1.99 10.34 2.98 10 4 C10 4.99 10 5.98 10 7 C6.433255 7 5.89456323 6.36308045 3.3125 4.0625 C2.68988281 3.51722656 2.06726563 2.97195312 1.42578125 2.41015625 C0.95527344 1.94480469 0.48476563 1.47945312 0 1 C0 0.67 0 0.34 0 0 Z " fill="#1580BE" transform="translate(658,161)"/>
<path d="M0 0 C1.27310312 0.93441535 2.543388 1.87267111 3.8125 2.8125 C4.52019531 3.33457031 5.22789062 3.85664062 5.95703125 4.39453125 C7.78531393 5.83128877 9.39896688 7.31815763 11 9 C8.73806201 8.515299 6.93034549 7.96312408 4.875 6.875 C4.25625 6.58625 3.6375 6.2975 3 6 C2.01 6.495 2.01 6.495 1 7 C-0.32 5.68 -1.64 4.36 -3 3 C-2.01 2.01 -1.02 1.02 0 0 Z " fill="#1381BF" transform="translate(629,52)"/>
<path d="M0 0 C3.98381075 2.16264012 6.88983545 4.71211176 10 8 C7 8 4 8 1 8 C1.66 6.68 2.32 5.36 3 4 C2.01 3.34 1.02 2.68 0 2 C0 1.34 0 0.68 0 0 Z " fill="#1480BE" transform="translate(104,84)"/>
<path d="M0 0 C3.92300495 2.35380297 4.83857315 4.64464931 6 9 C2.05860922 7.33248852 -0.7892812 4.77289351 -4 2 C-2.68 1.34 -1.36 0.68 0 0 Z " fill="#167CC2" transform="translate(707,196)"/>
<path d="M0 0 C8.44646925 6.15034169 8.44646925 6.15034169 12 10 C11.01 10 10.02 10 9 10 C9 10.66 9 11.32 9 12 C8.34 12 7.68 12 7 12 C6.38125 10.3603125 6.38125 10.3603125 5.75 8.6875 C4.38277962 5.44280475 2.97594201 3.94975511 0 2 C0 1.34 0 0.68 0 0 Z " fill="#1B80BB" transform="translate(92,74)"/>
<path d="M0 0 C1.27310312 0.93441535 2.543388 1.87267111 3.8125 2.8125 C4.52019531 3.33457031 5.22789062 3.85664062 5.95703125 4.39453125 C7.78531393 5.83128877 9.39896688 7.31815763 11 9 C9.02 9 7.04 9 5 9 C5 8.01 5 7.02 5 6 C4.34 6 3.68 6 3 6 C3 5.34 3 4.68 3 4 C2.01 3.67 1.02 3.34 0 3 C0 2.01 0 1.02 0 0 Z " fill="#1A82BC" transform="translate(640,61)"/>
<path d="M0 0 C4.69159716 3.38772897 9.0299782 6.78185183 13 11 C8.25 10.125 8.25 10.125 6 9 C5.67 8.01 5.34 7.02 5 6 C3.33729713 4.66172696 1.67083819 3.32810215 0 2 C0 1.34 0 0.68 0 0 Z " fill="#1E83B6" transform="translate(75,60)"/>
<path d="M0 0 C4.80571485 3.12371465 9.57485209 6.34981454 14 10 C14 10.33 14 10.66 14 11 C12.35 11 10.7 11 9 11 C8.67 10.01 8.34 9.02 8 8 C7.01 7.67 6.02 7.34 5 7 C4.34 6.01 3.68 5.02 3 4 C2.01 3.67 1.02 3.34 0 3 C0 2.01 0 1.02 0 0 Z " fill="#2582B7" transform="translate(615,41)"/>
<path d="M0 0 C2.875 -0.1875 2.875 -0.1875 6 0 C8 3 8 3 8 5 C8.99 6.485 8.99 6.485 10 8 C6.05205855 6.32971708 3.18203882 3.8204435 0 1 C0 0.67 0 0.34 0 0 Z " fill="#1C84C0" transform="translate(134,193)"/>
<path d="M0 0 C1.31611677 0.95336021 2.62778961 1.91285774 3.9375 2.875 C4.66839844 3.40867187 5.39929688 3.94234375 6.15234375 4.4921875 C8 6 8 6 9 8 C6.36 7.67 3.72 7.34 1 7 C0.67 4.69 0.34 2.38 0 0 Z " fill="#1880BF" transform="translate(147,118)"/>
<path d="M0 0 C2 1 2 1 2 1 Z M-5 1 C-2.75 0.625 -2.75 0.625 0 1 C2.01559845 3.57548691 3.54135892 6.08271784 5 9 C1.05205855 7.32971708 -1.81796118 4.8204435 -5 2 C-5 1.67 -5 1.34 -5 1 Z " fill="#1F80BA" transform="translate(84,148)"/>
<path d="M0 0 C0.99 0.33 1.98 0.66 3 1 C2.979375 1.78375 2.95875 2.5675 2.9375 3.375 C2.81315937 5.98114961 2.81315937 5.98114961 4 8 C0.63408134 6.55746343 -1.51047079 4.66735273 -4 2 C-2.68 2.33 -1.36 2.66 0 3 C0 2.01 0 1.02 0 0 Z " fill="#1680C0" transform="translate(793,264)"/>
<path d="M0 0 C2.64 0.33 5.28 0.66 8 1 C8.33 2.98 8.66 4.96 9 7 C5.18315774 5.44499019 2.80804268 2.96404505 0 0 Z " fill="#1D84BE" transform="translate(38,275)"/>
<path d="M0 0 C4.28806873 0.47645208 6.26647487 1.65902484 9 5 C9 5.66 9 6.32 9 7 C5.18315774 5.44499019 2.80804268 2.96404505 0 0 Z " fill="#1A84BA" transform="translate(174,225)"/>
<path d="M0 0 C1.98 0 3.96 0 6 0 C6.99 2.31 7.98 4.62 9 7 C5.18315774 5.44499019 2.80804268 2.96404505 0 0 Z " fill="#1983BB" transform="translate(728,217)"/>
<path d="M0 0 C3.94139078 1.66751148 6.7892812 4.22710649 10 7 C7 8 7 8 4 7 C2.48527726 4.72791589 1.21990407 2.43980815 0 0 Z " fill="#1E82BC" transform="translate(668,84)"/>
<path d="M0 0 C1.65 0 3.3 0 5 0 C5.33 0.66 5.66 1.32 6 2 C8.02463255 2.65213292 8.02463255 2.65213292 10 3 C9.01 3.66 8.02 4.32 7 5 C3.22873209 3.98819642 2.21585428 3.32378142 0 0 Z " fill="#1485C5" transform="translate(114,177)"/>
<path d="M0 0 C2.64 1.98 5.28 3.96 8 6 C5.13822943 7.43088528 3.06624227 6.59991697 0 6 C0 4.02 0 2.04 0 0 Z " fill="#1A83B8" transform="translate(177,142)"/>
<path d="M0 0 C1.98 0.66 3.96 1.32 6 2 C6.33 3.65 6.66 5.3 7 7 C3.17053157 5.54744301 1.87949705 3.57104439 0 0 Z " fill="#1680BE" transform="translate(416,268)"/>
<path d="M0 0 C2 1 2 1 2.6875 2.9375 C3 5 3 5 2 7 C0.0625 6.625 0.0625 6.625 -2 6 C-2.33 5.34 -2.66 4.68 -3 4 C-2.34 4 -1.68 4 -1 4 C-0.67 2.68 -0.34 1.36 0 0 Z " fill="#0D7EC1" transform="translate(716,201)"/>
<path d="M0 0 C5.75 3.625 5.75 3.625 8 7 C5.36 6.34 2.72 5.68 0 5 C0 3.35 0 1.7 0 0 Z " fill="#1A80BB" transform="translate(41,33)"/>
<path d="M0 0 C2.97 0.99 5.94 1.98 9 3 C8.67 3.99 8.34 4.98 8 6 C4.63408134 4.55746343 2.48952921 2.66735273 0 0 Z " fill="#1E7FB8" transform="translate(589,265)"/>
<path d="M0 0 C5.75 1.875 5.75 1.875 8 3 C8.625 5.0625 8.625 5.0625 9 7 C5.18315774 5.44499019 2.80804268 2.96404505 0 0 Z " fill="#2783B3" transform="translate(204,249)"/>
<path d="M0 0 C2.31 0.33 4.62 0.66 7 1 C7.33 2.65 7.66 4.3 8 6 C4.63408134 4.55746343 2.48952921 2.66735273 0 0 Z " fill="#1C81B4" transform="translate(749,234)"/>
<path d="M0 0 C3.32901247 2.21934164 3.75023244 3.34683329 5 7 C1.63408134 5.55746343 -0.51047079 3.66735273 -3 1 C-2.01 0.67 -1.02 0.34 0 0 Z " fill="#1B83B9" transform="translate(643,146)"/>
<path d="M0 0 C5.875 3.75 5.875 3.75 7 6 C6.01 6 5.02 6 4 6 C3.67 6.66 3.34 7.32 3 8 C2.67 7.34 2.34 6.68 2 6 C2.33 5.01 2.66 4.02 3 3 C2.01 3.33 1.02 3.66 0 4 C0 2.68 0 1.36 0 0 Z " fill="#1983BE" transform="translate(169,136)"/>
<path d="M0 0 C1.31611677 0.95336021 2.62778961 1.91285774 3.9375 2.875 C4.66839844 3.40867187 5.39929688 3.94234375 6.15234375 4.4921875 C8 6 8 6 9 8 C5.625 7.375 5.625 7.375 2 6 C0.5625 2.875 0.5625 2.875 0 0 Z " fill="#1E80B5" transform="translate(137,110)"/>
<path d="M0 0 C1.33333333 0.66666667 2.66666667 1.33333333 4 2 C4.70125 2.28875 5.4025 2.5775 6.125 2.875 C8.42031559 4.25218936 9.02079402 5.55198504 10 8 C6.05205855 6.32971708 3.18203882 3.8204435 0 1 C0 0.67 0 0.34 0 0 Z " fill="#267EB2" transform="translate(668,169)"/>
<path d="M0 0 C1.65 0 3.3 0 5 0 C5.66 1.98 6.32 3.96 7 6 C3.63279613 4.60667426 2.0140476 3.0210714 0 0 Z " fill="#1B7FB7" transform="translate(631,139)"/>
<path d="M0 0 C3.057952 1.73559438 5.63379989 3.38472619 8 6 C5.21788056 5.62403791 3.4120716 5.32681541 1.1875 3.5625 C0 2 0 2 0 0 Z " fill="#1C80B3" transform="translate(58,47)"/>
<path d="M0 0 C2.31 0.33 4.62 0.66 7 1 C7 2.32 7 3.64 7 5 C4.11562221 3.70700306 2.12780579 2.34058637 0 0 Z " fill="#1781BB" transform="translate(809,282)"/>
<path d="M0 0 C1.65 0 3.3 0 5 0 C5.66 1.98 6.32 3.96 7 6 C5.83054208 5.19152271 4.66449539 4.37810888 3.5 3.5625 C2.8503125 3.11003906 2.200625 2.65757812 1.53125 2.19140625 C1.0259375 1.79824219 0.520625 1.40507812 0 1 C0 0.67 0 0.34 0 0 Z " fill="#2184C1" transform="translate(25,265)"/>
<path d="M0 0 C3.36591866 1.44253657 5.51047079 3.33264727 8 6 C6.68 6.33 5.36 6.66 4 7 C2.02 3.535 2.02 3.535 0 0 Z " fill="#1F7FB6" transform="translate(740,142)"/>
<path d="M0 0 C3.057952 1.73559438 5.63379989 3.38472619 8 6 C6.02 6 4.04 6 2 6 C2 5.01 2 4.02 2 3 C1.34 2.67 0.68 2.34 0 2 C0 1.34 0 0.68 0 0 Z " fill="#227EB0" transform="translate(601,30)"/>
<path d="M0 0 C2.875 -0.1875 2.875 -0.1875 6 0 C6.66 0.99 7.32 1.98 8 3 C5.69 2.67 3.38 2.34 1 2 C1 2.66 1 3.32 1 4 C0.34 3.67 -0.32 3.34 -1 3 C-0.67 2.01 -0.34 1.02 0 0 Z " fill="#117EBE" transform="translate(19,19)"/>
<path d="M0 0 C3.875 1.75 3.875 1.75 5 4 C3.68 4.33 2.36 4.66 1 5 C0.34 3.68 -0.32 2.36 -1 1 C-0.67 0.67 -0.34 0.34 0 0 Z " fill="#1782C1" transform="translate(586,18)"/>
</svg>
