<?xml version="1.0" encoding="UTF-8"?>
<svg version="1.1" xmlns="http://www.w3.org/2000/svg" width="612" height="408">
<path d="M0 0 C1.28204575 -0.00436032 1.28204575 -0.00436032 2.58999142 -0.00880873 C5.44941461 -0.01609833 8.30862252 -0.00917019 11.16804409 -0.002285 C13.24061058 -0.00458984 15.31317626 -0.00776651 17.38574022 -0.01173949 C23.0777634 -0.02009289 28.76971957 -0.01595971 34.461743 -0.00976706 C40.60153924 -0.00524586 46.74132388 -0.01222466 52.88111782 -0.0177269 C64.21234043 -0.02611158 75.54353572 -0.02537752 86.87475765 -0.01990396 C97.34219613 -0.01487248 107.80962678 -0.01355963 118.27706623 -0.01594925 C119.31863667 -0.0161784 119.31863667 -0.0161784 120.38124894 -0.01641219 C123.19996729 -0.01703487 126.01868563 -0.01767167 128.83740397 -0.01833172 C155.27698289 -0.02444922 181.7165482 -0.01890346 208.15612501 -0.00813792 C231.6471201 0.00135428 255.1380935 0.00050309 278.6290884 -0.00905991 C305.02187906 -0.01976829 331.4146577 -0.02401641 357.80745023 -0.01783538 C360.62071701 -0.01719394 363.43398378 -0.01656826 366.24725056 -0.01594925 C366.93994813 -0.01579109 367.63264571 -0.01563294 368.34633412 -0.01546999 C378.80799569 -0.01319479 389.26964857 -0.01585606 399.73130894 -0.02090836 C411.62557537 -0.02662387 423.5198162 -0.02501081 435.41408164 -0.01434687 C441.48474301 -0.00908386 447.55536032 -0.00704417 453.62602139 -0.01364517 C459.18045212 -0.0195936 464.73479786 -0.01634777 470.28922086 -0.00569007 C472.30120517 -0.00345136 474.31319663 -0.00460284 476.32517637 -0.00944164 C479.05566768 -0.01550601 481.78586622 -0.00930235 484.51634216 0 C485.3010477 -0.00468233 486.08575324 -0.00936466 486.89423773 -0.01418889 C493.03618586 0.02775135 498.25636633 0.64282094 503.13275051 4.68918228 C505.19525051 7.25168228 505.19525051 7.25168228 505.19525051 10.25168228 C505.85525051 10.25168228 506.51525051 10.25168228 507.19525051 10.25168228 C509.52118185 15.75565124 510.63056414 20.30439977 510.55601406 26.31296158 C510.55857734 27.08342127 510.56114061 27.85388096 510.56378156 28.64768791 C510.56868933 31.20731105 510.55227691 33.76633302 510.53582668 36.32590103 C510.53497976 38.16942201 510.53545683 40.012944 510.5371542 41.85646439 C510.53801302 46.84559025 510.5204055 51.83449863 510.49943233 56.82357407 C510.48064672 62.04325119 510.4789136 67.2629336 510.4753561 72.48263931 C510.46604118 82.35993412 510.44143484 92.23712902 510.41130763 102.11437988 C510.37774645 113.36222123 510.36127329 124.61006742 510.34622133 135.8579464 C510.31488483 158.98924703 510.26213504 182.12045905 510.19525051 205.25168228 C506.27936479 206.55697752 502.56712651 206.3794545 498.48643112 206.35911274 C497.58137804 206.35857821 496.67632496 206.35804368 495.74384603 206.35749295 C492.68313072 206.35444254 489.62248116 206.34416367 486.56178188 206.33397293 C484.35655 206.33028143 482.15131734 206.32703158 479.9460842 206.3241877 C473.86440672 206.31505662 467.78275871 206.29962325 461.70109713 206.28320491 C455.82297942 206.26831313 449.94485489 206.25813195 444.06672759 206.24785057 C432.03895434 206.22664919 420.01119542 206.20075907 407.98343754 206.17221642 C396.07077145 206.14396213 384.15810378 206.11777975 372.24542713 206.09437752 C371.50532417 206.09292243 370.76522121 206.09146734 370.00269088 206.08996816 C366.24423383 206.08258963 362.48577671 206.07524824 358.72731956 206.06792115 C332.09137663 206.0159277 305.45544546 205.95926912 278.81951809 205.89987564 C252.93963986 205.84217867 227.0597585 205.78658947 201.17986965 205.73386002 C200.38243837 205.73223443 199.58500709 205.73060885 198.76341123 205.72893401 C190.75543461 205.7126119 182.7474579 205.6963327 174.73948113 205.68008495 C158.42563939 205.64698408 142.11179823 205.61359671 125.79795742 205.58003616 C125.04783821 205.57849338 124.29771899 205.57695061 123.52486889 205.57536108 C73.41498583 205.47226665 23.30511708 205.36247246 -26.80474949 205.25168228 C-26.89823864 180.76461742 -26.96875123 156.27757935 -27.01199818 131.79037189 C-27.03261325 120.42023689 -27.06071379 109.05021285 -27.1065073 97.68014908 C-27.14640723 87.76866771 -27.17218997 77.85726671 -27.18110347 67.94570726 C-27.18631283 62.69879768 -27.19853499 57.45211802 -27.22766972 52.20528221 C-27.25488855 47.26327753 -27.26318137 42.32159675 -27.25718021 37.37952423 C-27.25827755 35.5691597 -27.26619279 33.75878396 -27.28157139 31.94848442 C-27.43631361 12.7875453 -27.43631361 12.7875453 -21.49890614 5.69087696 C-15.62578691 0.09211313 -7.63667327 -0.04570433 0 0 Z M46.19525051 52.25168228 C44.09041305 55.40893847 43.94804461 56.12542839 43.96819973 59.72311783 C43.96835079 60.62382507 43.96850185 61.52453232 43.96865749 62.45253372 C43.97898006 63.42136993 43.98930264 64.39020615 43.99993801 65.38840103 C44.00276791 66.38297821 44.0055978 67.37755539 44.00851345 68.40227127 C44.01971562 71.58136359 44.04482037 74.760175 44.07025051 77.93918228 C44.08028026 80.09347509 44.08940612 82.24777231 44.09759426 84.40207291 C44.11965505 89.685372 44.15313295 94.96850707 44.19525051 100.25168228 C47.61110068 102.3262134 50.23562521 102.49059884 54.19793606 102.46286392 C55.40987133 102.45948517 56.6218066 102.45610641 57.87046719 102.45262527 C59.17776287 102.43916565 60.48505856 102.42570602 61.83196926 102.41183853 C63.19474264 102.4055609 64.55752117 102.40032321 65.92030239 102.3960762 C69.50900556 102.38278291 73.09753807 102.35837287 76.68615627 102.33072281 C82.41132825 102.28761181 88.13654026 102.25768613 93.86182499 102.23468208 C95.84968123 102.22456645 97.83749643 102.20720955 99.82530117 102.18968582 C106.37004075 102.15487009 112.71865468 102.26168157 119.19525051 103.25168228 C120.19525051 104.25168228 120.19525051 104.25168228 120.3087759 107.66989517 C120.30852484 109.18805215 120.30296476 110.70621485 120.29290676 112.22433853 C120.29189968 112.93102676 120.2908926 113.637715 120.289855 114.36581802 C120.28460796 117.01528919 120.2706468 119.6647373 120.25775051 122.31418228 C120.23712551 128.23355728 120.21650051 134.15293228 120.19525051 140.25168228 C94.95025051 140.74668228 94.95025051 140.74668228 69.19525051 141.25168228 C69.19525051 133.66168228 69.19525051 126.07168228 69.19525051 118.25168228 C67.43921043 116.4956422 65.13592728 117.12335643 62.79695034 117.11273575 C62.04280346 117.11475998 61.28865658 117.11678421 60.51165676 117.11886978 C59.74095348 117.11791306 58.97025021 117.11695633 58.17619228 117.11597061 C56.54281438 117.11528879 54.90943379 117.11714319 53.27606106 117.12131119 C50.77184879 117.12665221 48.26781648 117.12137004 45.76360989 117.11496353 C44.17962511 117.11562446 42.59564045 117.11690591 41.01165676 117.11886978 C39.88347279 117.11583344 39.88347279 117.11583344 38.73249722 117.11273575 C34.83593052 117.05471864 34.83593052 117.05471864 31.19525051 118.25168228 C31.14587772 122.91475242 31.10954424 127.57767101 31.08538723 132.24094009 C31.07531863 133.82788111 31.06166284 135.41480353 31.0443716 137.00168228 C31.0201605 139.28037475 31.00877629 141.55882234 30.99993801 143.83761978 C30.98961544 144.54913193 30.97929287 145.26064407 30.96865749 145.99371719 C30.96825629 147.74799893 31.07322842 149.50164937 31.19525051 151.25168228 C33.71967816 153.77610993 34.55347088 153.50270255 38.04716396 153.50564957 C39.58457493 153.51410904 39.58457493 153.51410904 41.1530447 153.52273941 C42.28193111 153.51869095 43.41081753 153.51464249 44.57391262 153.51047134 C46.35202579 153.5157283 46.35202579 153.5157283 48.16606045 153.52109146 C51.42229267 153.52840045 54.67836308 153.52666616 57.93459296 153.52033329 C61.33915507 153.51527822 64.74370618 153.51996347 68.1482687 153.52310562 C73.86731826 153.52674721 79.58631621 153.52194167 85.30535793 153.51242447 C91.91960761 153.50154472 98.53373395 153.50506119 105.14798063 153.51607728 C110.82276622 153.5251509 116.49751466 153.52643492 122.17230517 153.52119994 C125.5633201 153.51807997 128.95427706 153.5176715 132.34528828 153.52427292 C136.12600907 153.5293346 139.90649094 153.52163242 143.68719387 153.51047134 C144.81405605 153.51451981 145.94091824 153.51856827 147.10192776 153.52273941 C148.12968822 153.51709976 149.15744869 153.51146011 150.21635342 153.50564957 C151.11066035 153.50489552 152.00496729 153.50414146 152.92637444 153.50336456 C155.4759459 153.39647338 155.4759459 153.39647338 158.19525051 151.25168228 C158.66192433 148.73116725 158.66192433 148.73116725 158.59930325 145.74802017 C158.61198742 144.5966507 158.62467159 143.44528122 158.63774014 142.25902176 C158.6348045 141.01007629 158.63186886 139.76113083 158.62884426 138.47433853 C158.63408611 137.19691284 158.63932796 135.91948715 158.64472866 134.60335159 C158.65116335 131.89703129 158.65122503 129.19155065 158.64129543 126.48532486 C158.62980961 123.0169107 158.65000344 119.54951521 158.67921257 116.08123493 C158.70197067 112.77476395 158.69510821 109.46836954 158.69134426 106.16183853 C158.70257824 104.9149173 158.71381222 103.66799606 158.72538662 102.38328934 C158.71600567 101.2287677 158.70662472 100.07424606 158.6969595 98.88473892 C158.69679333 97.8670694 158.69662716 96.84939987 158.69645596 95.80089188 C158.40184761 93.18234301 158.40184761 93.18234301 156.60536098 91.42663956 C153.3404004 89.83493277 150.76259027 89.85104714 147.13177395 89.81930923 C146.42893276 89.80911758 145.72609158 89.79892593 145.00195217 89.78842545 C142.68609541 89.75830693 140.37065235 89.74903162 138.05462551 89.73996353 C136.44607069 89.72311593 134.83752902 89.70496557 133.22900295 89.68556595 C129.00075295 89.63806836 124.7725563 89.60825758 120.54412746 89.58212662 C116.22720713 89.55231979 111.91047062 89.5057899 107.59368801 89.46066666 C99.1276172 89.37463616 90.66156557 89.30883591 82.19525051 89.25168228 C82.19525051 81.33168228 82.19525051 73.41168228 82.19525051 65.25168228 C90.77525051 65.25168228 99.35525051 65.25168228 108.19525051 65.25168228 C108.19525051 68.55168228 108.19525051 71.85168228 108.19525051 75.25168228 C108.69025051 76.24168228 108.69025051 76.24168228 109.19525051 77.25168228 C120.41525051 77.25168228 131.63525051 77.25168228 143.19525051 77.25168228 C143.19525051 76.59168228 143.19525051 75.93168228 143.19525051 75.25168228 C143.85525051 75.25168228 144.51525051 75.25168228 145.19525051 75.25168228 C145.45086812 72.16994559 145.6700709 69.08665604 145.88275051 66.00168228 C145.99199856 64.69263931 145.99199856 64.69263931 146.10345364 63.35715103 C146.15823879 62.51281509 146.21302395 61.66847916 146.26946926 60.79855728 C146.35587673 59.63598404 146.35587673 59.63598404 146.44402981 58.44992447 C146.09580502 55.37297061 145.49806507 54.36861324 143.19525051 52.25168228 C140.13488771 51.63119674 137.09518261 51.71627355 133.98211575 51.7499733 C133.03879391 51.74457031 132.09547207 51.73916733 131.12356472 51.73360062 C128.00000715 51.72107512 124.87736435 51.73762873 121.75384426 51.75558853 C119.58815875 51.75543365 117.42247296 51.7539464 115.25678921 51.75117874 C110.71637639 51.74979308 106.17627883 51.76238206 101.63592434 51.78512955 C95.80570981 51.81353138 89.97601867 51.8107744 84.1457653 51.79803944 C79.6737458 51.79109693 75.20184806 51.79885491 70.72984409 51.81129646 C68.57957392 51.81582367 66.42929074 51.81613675 64.27901936 51.81223106 C61.27873544 51.80933241 58.27918248 51.82576067 55.27899075 51.84762955 C54.3838728 51.8431279 53.48875484 51.83862625 52.56651211 51.83398819 C49.85386781 51.83128031 49.85386781 51.83128031 46.19525051 52.25168228 Z M179.48318386 53.56631851 C177.39072157 56.30447273 177.76812126 59.38542453 177.79681301 62.69308853 C177.79394283 63.41656982 177.79107265 64.14005112 177.7881155 64.88545609 C177.78607624 66.41273152 177.79159659 67.94003315 177.80413723 69.46725845 C177.82021769 71.80940204 177.80427358 74.1498262 177.78509426 76.49191666 C177.78707626 77.97564443 177.79091905 79.45937114 177.79681301 80.94308853 C177.79074032 81.64518951 177.78466763 82.3472905 177.77841091 83.07066727 C177.77540998 85.25520689 177.77540998 85.25520689 178.19525051 88.25168228 C181.01035045 90.52903238 181.01035045 90.52903238 184.19525051 90.25168228 C184.22249474 93.08508193 184.2422064 95.91821345 184.25775051 98.75168228 C184.26612942 99.54316666 184.27450832 100.33465103 184.28314114 101.15011978 C184.30416236 106.27929945 183.93462338 111.17504334 183.19525051 116.25168228 C180.72025051 117.24168228 180.72025051 117.24168228 178.19525051 118.25168228 C178.12119164 122.91473266 178.06669288 127.57744213 178.03045559 132.24094009 C178.01535237 133.8279148 177.99486829 135.41484766 177.96893215 137.00168228 C177.93261456 139.28043301 177.91554028 141.55863287 177.90228176 143.83761978 C177.8867979 144.54913193 177.87131405 145.26064407 177.85536098 145.99371719 C177.81978543 148.20922633 177.81978543 148.20922633 178.19525051 151.25168228 C182.12829523 153.8737121 185.4615012 153.50316755 190.01946926 153.44699478 C190.88087017 153.44416489 191.74227108 153.44133499 192.62977505 153.43841934 C195.3809082 153.42722466 198.13171576 153.40212149 200.88275051 153.37668228 C202.74798018 153.36665156 204.61321496 153.35752587 206.47845364 153.34933853 C211.05084471 153.32728766 215.62299241 153.29276277 220.19525051 153.25168228 C222.60169192 149.53793533 222.45343692 145.91319394 222.39056301 141.64230728 C222.38631817 140.55209274 222.38631817 140.55209274 222.38198757 139.43985367 C222.37082574 137.12695978 222.34572903 134.8144584 222.32025051 132.50168228 C222.31021552 130.93007331 222.30109058 129.35845824 222.29290676 127.78683853 C222.27089956 123.94163607 222.23639767 120.09672564 222.19525051 116.25168228 C223.37087551 117.24168228 223.37087551 117.24168228 224.57025051 118.25168228 C226.91037864 120.45369669 226.91037864 120.45369669 229.19525051 120.25168228 C229.36025051 120.93230728 229.52525051 121.61293228 229.69525051 122.31418228 C231.56442587 125.9746507 233.98858348 127.83175393 237.11712551 130.43136978 C239.02754345 132.10478098 240.59313969 133.78865638 242.19525051 135.75168228 C244.86023618 138.99601266 247.82243714 141.63055136 251.07025051 144.28293228 C253.19525051 146.25168228 253.19525051 146.25168228 254.32154751 147.94868851 C256.40462981 150.94429159 257.99273139 152.93639701 261.60476589 153.88342667 C264.55702241 154.09455982 267.43583176 154.09122619 270.39446926 154.00558853 C271.46647076 154.00042725 272.53847225 153.99526596 273.64295864 153.98994827 C275.9015389 153.97284584 278.16004681 153.93905047 280.4181509 153.88962173 C283.88147375 153.81421008 287.34252542 153.78719105 290.80657864 153.76926041 C293.00257279 153.74667205 295.19854111 153.72137498 297.39446926 153.69308853 C298.43197826 153.68145172 299.46948727 153.66981491 300.53843594 153.65782547 C301.49986004 153.63538269 302.46128414 153.61293991 303.45184231 153.58981705 C304.29756298 153.57314484 305.14328365 153.55647263 306.01463223 153.5392952 C308.48599969 153.37644792 308.48599969 153.37644792 311.19525051 151.25168228 C311.46236455 148.69772741 311.54374081 146.38893854 311.48821926 143.83761978 C311.48397442 143.10798019 311.47972958 142.37834061 311.4753561 141.62659073 C311.45854404 139.29291469 311.42088919 136.96009788 311.38275051 134.62668228 C311.36770685 133.04596557 311.35401789 131.46523535 311.34173489 129.88449478 C311.30863252 126.00655884 311.25683455 122.1292663 311.19525051 118.25168228 C306.96181351 116.17039963 303.24499613 116.0425279 298.62884426 116.19699478 C297.15945241 116.22227442 295.6900509 116.24699728 294.22064114 116.27121353 C291.92060647 116.32092007 289.62108228 116.37701999 287.32147121 116.44357681 C285.09056287 116.50403245 282.8603107 116.53952509 280.62884426 116.57199478 C279.94333996 116.59891403 279.25783566 116.62583328 278.55155849 116.65356827 C275.07882249 116.68999396 273.52964535 116.54040011 270.8556509 114.23166275 C270.30771877 113.5782692 269.75978664 112.92487564 269.19525051 112.25168228 C268.53525051 112.25168228 267.87525051 112.25168228 267.19525051 112.25168228 C266.96837551 111.69480728 266.74150051 111.13793228 266.50775051 110.56418228 C264.81975015 107.59008641 262.72848534 105.53159363 260.19525051 103.25168228 C259.53525051 103.25168228 258.87525051 103.25168228 258.19525051 103.25168228 C257.79306301 102.29261978 257.79306301 102.29261978 257.38275051 101.31418228 C256.30857299 98.92036542 256.30857299 98.92036542 253.19525051 98.25168228 C252.13275051 96.31418228 252.13275051 96.31418228 251.19525051 94.25168228 C250.53525051 93.59168228 249.87525051 92.93168228 249.19525051 92.25168228 C249.29071759 88.71940041 250.09719166 87.36336042 252.44525051 84.68918228 C253.35275051 83.88480728 254.26025051 83.08043228 255.19525051 82.25168228 C255.90592678 81.55252701 256.61660305 80.85337173 257.34881496 80.13302994 C261.04759796 77.68832441 264.20030394 77.68397899 268.48821926 77.71261978 C269.27545879 77.70082687 270.06269833 77.68903397 270.8737936 77.6768837 C273.37698257 77.64170208 275.87933471 77.63245884 278.38275051 77.62668228 C280.89662758 77.61035061 283.41013161 77.5883699 285.92384243 77.55505753 C287.48517625 77.53539188 289.04668176 77.52609651 290.60813808 77.52814102 C294.86253732 77.63894111 294.86253732 77.63894111 298.19525051 75.25168228 C298.50544747 73.05565433 298.50544747 73.05565433 298.46087551 70.53293228 C298.46345364 69.60094009 298.46603176 68.66894791 298.46868801 67.70871353 C298.45708645 66.24498306 298.45708645 66.24498306 298.44525051 64.75168228 C298.45298489 63.77586197 298.46071926 62.80004166 298.46868801 61.79465103 C298.46610989 60.86265884 298.46353176 59.93066666 298.46087551 58.97043228 C298.45749172 57.68555923 298.45749172 57.68555923 298.45403957 56.37472916 C298.39026623 54.03579681 298.39026623 54.03579681 296.19525051 52.25168228 C293.62446149 52.00280502 291.16520603 51.87528428 288.58978176 51.84543228 C287.45363682 51.82833206 287.45363682 51.82833206 286.29453945 51.81088638 C284.68817644 51.7919767 283.08173566 51.77891451 281.47527981 51.77121353 C279.03352167 51.75188627 276.59519556 51.68991065 274.15423489 51.62668228 C264.86974911 51.21127088 264.86974911 51.21127088 256.76556301 55.06808853 C255.36790756 56.59343074 255.36790756 56.59343074 254.19525051 58.25168228 C253.21829403 59.39940064 252.2393529 60.54543487 251.25775051 61.68918228 C250.77435207 62.27570572 250.29095364 62.86222916 249.79290676 63.46652603 C247.46043673 66.07273338 244.79983824 68.23887257 242.13665676 70.49777603 C239.73615497 72.66643862 237.75442477 75.05625065 235.70696926 77.55246353 C233.58747228 79.93484386 231.19444038 81.9009805 228.71087551 83.89230728 C226.936121 85.37058208 226.936121 85.37058208 225.19525051 88.25168228 C224.20525051 88.58168228 223.21525051 88.91168228 222.19525051 89.25168228 C222.21881618 87.67701187 222.21881618 87.67701187 222.24285793 86.07052994 C222.2970767 82.18307516 222.33157091 78.29565391 222.36004543 74.40793228 C222.37515055 72.72395588 222.39563597 71.04001893 222.42156887 69.35617447 C222.45787772 66.93843235 222.47495898 64.52120936 222.48821926 62.10324478 C222.51144505 60.97035522 222.51144505 60.97035522 222.53514004 59.81457901 C222.57087361 57.46760147 222.57087361 57.46760147 222.19525051 54.25168228 C218.34790153 51.68678296 215.15701726 51.94585769 210.69525051 51.95090103 C209.86316067 51.94661591 209.03107082 51.94233078 208.17376614 51.9379158 C206.41531185 51.93217535 204.65683382 51.93167015 202.89837551 51.93600845 C200.20525652 51.93917053 197.51323383 51.9156993 194.82025051 51.89035416 C193.11191857 51.88808137 191.40358366 51.88737757 189.69525051 51.88840103 C188.88894192 51.87919128 188.08263332 51.86998154 187.25189114 51.86049271 C183.09363175 51.78871979 183.09363175 51.78871979 179.48318386 53.56631851 Z M331.19525051 54.25168228 C330.99568081 56.80918681 330.91538225 59.25606369 330.92962551 61.81418228 C330.92771206 62.56127457 330.92579861 63.30836685 330.92382717 64.0780983 C330.92246553 65.65842399 330.92616052 67.23876087 330.93450832 68.81906509 C330.94520851 71.2421715 330.93461272 73.66453651 330.92181301 76.08761978 C330.92313461 77.62147559 330.92569701 79.15533093 330.92962551 80.68918228 C330.92557705 81.4162941 330.92152859 82.14340591 330.91735744 82.89255142 C330.82793549 87.02637861 330.82793549 87.02637861 333.19525051 90.25168228 C334.51525051 90.25168228 335.83525051 90.25168228 337.19525051 90.25168228 C336.86525051 99.16168228 336.53525051 108.07168228 336.19525051 117.25168228 C334.54525051 117.25168228 332.89525051 117.25168228 331.19525051 117.25168228 C331.17059954 122.21790577 331.15241402 127.18409395 331.14031887 132.15036392 C331.13527862 133.84112544 331.12844646 135.53188257 331.11981106 137.22262955 C331.10773194 139.64768935 331.10201928 142.07269172 331.09759426 144.49777603 C331.09243298 145.25819702 331.08727169 146.01861801 331.081954 146.80208206 C331.08175814 148.61900799 331.13327774 150.43581356 331.19525051 152.25168228 C332.42758636 153.71288498 332.42758636 153.71288498 336.16424465 153.36520767 C337.93630658 153.36504848 339.70837311 153.35935013 341.48040676 153.34933853 C342.4112257 153.34792358 343.34204464 153.34650864 344.30107021 153.34505081 C347.28666242 153.339434 350.27218081 153.32687868 353.25775051 153.31418228 C355.27662964 153.30916945 357.29550994 153.30460616 359.31439114 153.30051041 C364.27472922 153.29030815 369.23490681 153.2707361 374.19525051 153.25168228 C374.19525051 141.37168228 374.19525051 129.49168228 374.19525051 117.25168228 C372.54525051 117.25168228 370.89525051 117.25168228 369.19525051 117.25168228 C369.16839113 115.10591592 369.14891963 112.96005583 369.13275051 110.81418228 C369.12114895 109.61922134 369.10954739 108.42426041 369.09759426 107.19308853 C369.19525051 104.25168228 369.19525051 104.25168228 370.19525051 103.25168228 C373.05792618 103.1784306 375.89596951 103.15930023 378.75775051 103.18918228 C379.5640591 103.193694 380.3703677 103.19820572 381.20110989 103.20285416 C383.19918807 103.2146771 385.19722834 103.23261314 387.19525051 103.25168228 C387.48400051 104.05605728 387.77275051 104.86043228 388.07025051 105.68918228 C388.92787619 108.38432908 388.92787619 108.38432908 391.19525051 109.25168228 C395.60272956 109.4633238 400.01397121 109.43747869 404.4259634 109.43698502 C406.62074103 109.43917032 408.81501505 109.45732734 411.00970364 109.47629166 C412.40358212 109.47922593 413.797463 109.4812105 415.19134426 109.48215103 C417.09678005 109.48831436 417.09678005 109.48831436 419.0407095 109.4946022 C422.3556506 109.49804462 422.3556506 109.49804462 425.19525051 107.25168228 C425.61134324 104.92867844 425.61134324 104.92867844 425.48821926 102.24386978 C425.47855129 101.25773697 425.46888332 100.27160416 425.45892239 99.25558853 C425.43378567 98.22304947 425.40864895 97.19051041 425.38275051 96.12668228 C425.36921535 95.08640884 425.3556802 94.04613541 425.34173489 92.97433853 C425.30630279 90.39960601 425.25690272 87.82589898 425.19525051 85.25168228 C420.12331973 85.12812501 415.05226355 85.03736614 409.97918606 84.97702408 C408.25344492 84.95187223 406.52781039 84.91774609 404.80242825 84.87448502 C402.32242471 84.81385795 399.8438283 84.78548127 397.36321926 84.76340103 C396.59124706 84.7375946 395.81927486 84.71178818 395.02390957 84.68519974 C392.5852148 84.62774275 392.5852148 84.62774275 389.19525051 85.25168228 C387.37510555 87.66910472 387.37510555 87.66910472 386.19525051 90.25168228 C383.26949544 90.65921989 380.96931104 90.77443756 378.07025051 90.62668228 C377.32903957 90.61250259 376.58782864 90.59832291 375.82415676 90.58371353 C370.37793378 90.43436555 370.37793378 90.43436555 369.19525051 89.25168228 C369.03760646 87.47298502 368.94424374 85.68849752 368.87884426 83.90402603 C368.83694973 82.82443619 368.7950552 81.74484634 368.75189114 80.63254166 C368.71257473 79.49623306 368.67325832 78.35992447 368.63275051 77.18918228 C368.58956692 76.0490065 368.54638332 74.90883072 368.50189114 73.73410416 C368.39542212 70.90676033 368.29340844 68.0793249 368.19525051 65.25168228 C374.44320726 65.22641104 380.69115093 65.20884884 386.939147 65.19675064 C389.06643065 65.1917093 391.19371082 65.18487637 393.32098293 65.17624283 C396.37152877 65.16416849 399.42202896 65.15845214 402.47259426 65.15402603 C403.90852177 65.1462841 403.90852177 65.1462841 405.37345791 65.13838577 C406.25429546 65.13831024 407.13513302 65.13823471 408.04266262 65.13815689 C408.82209728 65.13593628 409.60153194 65.13371567 410.40458584 65.13142776 C412.19525051 65.25168228 412.19525051 65.25168228 413.19525051 66.25168228 C413.40293281 67.72564967 413.56241068 69.20659489 413.69525051 70.68918228 C413.98671995 74.09665733 413.98671995 74.09665733 415.19525051 77.25168228 C421.70972778 77.27697933 428.22419245 77.29452673 434.73870754 77.30661392 C436.95616027 77.31165137 439.17360967 77.3184815 441.39105129 77.32712173 C444.57318856 77.339213 447.75528202 77.34491638 450.93743801 77.34933853 C452.43124493 77.35708046 452.43124493 77.35708046 453.95522976 77.36497879 C455.33643505 77.36509209 455.33643505 77.36509209 456.74554348 77.36520767 C457.96465923 77.36853859 457.96465923 77.36853859 459.20840359 77.3719368 C461.2705241 77.37752886 461.2705241 77.37752886 463.19525051 76.25168228 C463.25312835 72.62674894 463.28880471 69.00193371 463.32025051 65.37668228 C463.34538723 63.82787369 463.34538723 63.82787369 463.37103176 62.24777603 C463.38069973 60.76857681 463.38069973 60.76857681 463.39056301 59.25949478 C463.40627346 57.8926857 463.40627346 57.8926857 463.42230129 56.49826431 C463.41396044 54.04877792 463.41396044 54.04877792 461.19525051 52.25168228 C458.85980879 51.94731194 458.85980879 51.94731194 456.10882473 51.997715 C454.49351864 51.98925552 454.49351864 51.98925552 452.8455801 51.98062515 C451.06573727 51.98669785 451.06573727 51.98669785 449.24993801 51.99289322 C448.00440151 51.98938858 446.75886501 51.98588394 445.47558498 51.9822731 C442.05410588 51.97496371 438.6328677 51.97669833 435.21140194 51.98303127 C431.6355395 51.9880849 428.05968756 51.9834016 424.48382473 51.98025894 C418.47810925 51.97661743 412.47244291 51.98142322 406.46673489 51.99094009 C399.51732539 52.00182502 392.56803324 51.99829957 385.61862659 51.98728728 C379.65850919 51.97821965 373.69842716 51.97692655 367.73830509 51.98216462 C364.17573656 51.98528722 360.61322324 51.98568576 357.05065823 51.97909164 C353.08057986 51.97225692 349.11063359 51.9817224 345.14056301 51.99289322 C343.95400112 51.98884476 342.76743923 51.9847963 341.54492092 51.98062515 C339.92961483 51.98908463 339.92961483 51.98908463 338.28167629 51.997715 C337.3422015 51.99846905 336.40272671 51.9992231 335.43478298 52 C332.9923878 52.0387352 332.9923878 52.0387352 331.19525051 54.25168228 Z " fill="#0266CA" transform="translate(63.804749488830566,75.74831771850586)"/>
<path d="M0 0 C1.25536696 5.45093547 0.98775671 10.57013867 0.75 16.125 C0.72292969 17.12660156 0.69585938 18.12820313 0.66796875 19.16015625 C0.62800781 20.12050781 0.58804688 21.08085937 0.546875 22.0703125 C0.51432617 22.94445801 0.48177734 23.81860352 0.44824219 24.71923828 C-0.08578691 27.43650396 -0.96361227 28.20185801 -3 30 C-4.19027984 32.59915538 -4.19027984 32.59915538 -5 35 C-5.99 35 -6.98 35 -8 35 C-8 35.66 -8 36.32 -8 37 C-12.4628929 39.23019777 -16.65694724 39.2902664 -21.53934097 39.2784729 C-22.40179603 39.28426654 -23.26425109 39.29006018 -24.15284115 39.29602939 C-27.05670479 39.31307826 -29.96040909 39.31591709 -32.86431885 39.31884766 C-34.96174712 39.32814329 -37.05917176 39.33829409 -39.15659213 39.34922886 C-44.93131282 39.37674136 -50.70600911 39.39172519 -56.48077846 39.40462852 C-62.70453376 39.42063305 -68.92824101 39.44797532 -75.15196228 39.47370911 C-89.47541874 39.53051764 -103.7988925 39.57043315 -118.12240958 39.60787382 C-125.20034285 39.62651675 -132.27826796 39.64766855 -139.35619319 39.66912124 C-163.58425131 39.74250231 -187.81231605 39.8116373 -212.04042435 39.86628723 C-213.56120663 39.86972804 -215.08198892 39.87316919 -216.60277121 39.8766107 C-218.12722463 39.88005693 -219.65167806 39.88350289 -221.17613149 39.88694859 C-224.23444575 39.8938625 -227.29275999 39.90078575 -230.35107422 39.90771484 C-231.48849972 39.91028528 -231.48849972 39.91028528 -232.64890352 39.91290765 C-257.24009776 39.96864815 -281.83112537 40.04900392 -306.42219673 40.14413083 C-332.42101961 40.24461294 -358.41981768 40.32328238 -384.41878104 40.37683868 C-387.27257285 40.38279818 -390.12636446 40.38884603 -392.98015594 40.3949585 C-394.03418237 40.39720053 -394.03418237 40.39720053 -395.10950227 40.39948785 C-406.41895499 40.42405276 -417.72824696 40.46842984 -429.03760566 40.51987196 C-440.40390465 40.57106672 -451.77004859 40.59944256 -463.13647732 40.60620445 C-469.29462056 40.61048561 -475.45233496 40.62455275 -481.61035728 40.66477394 C-487.24720605 40.70135646 -492.88339062 40.7101984 -498.52033612 40.69690013 C-500.56006475 40.69697979 -502.59982358 40.70724688 -504.63943937 40.72870183 C-523.05282328 40.91243478 -523.05282328 40.91243478 -529.45449328 35.67862034 C-536.26558781 28.28089008 -536.27326186 21.30763967 -536.125 11.625 C-536.11597656 10.50738281 -536.10695313 9.38976562 -536.09765625 8.23828125 C-536.07418346 5.49196538 -536.04134728 2.74609528 -536 0 C-485.22777437 -0.11246544 -434.45554629 -0.223734 -383.68330383 -0.32835388 C-382.93232789 -0.32990168 -382.18135196 -0.33144947 -381.40761917 -0.33304417 C-365.08842855 -0.36667127 -348.76923748 -0.4000747 -332.45004592 -0.4332476 C-324.44757285 -0.44951602 -316.44509987 -0.46583389 -308.44262695 -0.48217773 C-307.24808864 -0.48461614 -307.24808864 -0.48461614 -306.02941823 -0.4871038 C-280.19891682 -0.53985461 -254.36842374 -0.59587289 -228.53793296 -0.65357857 C-202.00242998 -0.71284205 -175.46692206 -0.76882319 -148.93140346 -0.82065109 C-145.18681603 -0.82796638 -141.44222868 -0.83531934 -137.69764137 -0.84269524 C-136.96062444 -0.84414581 -136.2236075 -0.84559638 -135.46425671 -0.84709091 C-123.58157485 -0.87057506 -111.69890329 -0.89753804 -99.81623191 -0.92578938 C-87.88149586 -0.95409071 -75.94675674 -0.97875705 -64.01200541 -0.99967117 C-57.54089813 -1.01116523 -51.06980507 -1.02432754 -44.59871101 -1.04183006 C-38.68275417 -1.05779555 -32.76680739 -1.06918753 -26.85083411 -1.07683109 C-24.7027428 -1.08043369 -22.55465361 -1.08576274 -20.40657123 -1.09292836 C-17.5021002 -1.102373 -14.59768634 -1.10571185 -11.69320202 -1.10743046 C-10.4223494 -1.1137775 -10.4223494 -1.1137775 -9.12582299 -1.12025276 C-5.82402004 -1.11676622 -3.155086 -1.05169533 0 0 Z " fill="#FD0000" transform="translate(573,293)"/>
<path d="M0 0 C1.25536696 5.45093547 0.98775671 10.57013867 0.75 16.125 C0.72292969 17.12660156 0.69585938 18.12820313 0.66796875 19.16015625 C0.62800781 20.12050781 0.58804688 21.08085937 0.546875 22.0703125 C0.51432617 22.94445801 0.48177734 23.81860352 0.44824219 24.71923828 C-0.08578691 27.43650396 -0.96361227 28.20185801 -3 30 C-4.19027984 32.59915538 -4.19027984 32.59915538 -5 35 C-5.99 35 -6.98 35 -8 35 C-8 35.66 -8 36.32 -8 37 C-12.46811736 39.23518942 -16.66778253 39.28709837 -21.55610085 39.27009296 C-22.42035348 39.27498782 -23.28460612 39.27988267 -24.17504823 39.28492585 C-27.08497756 39.29895575 -29.99473291 39.29875361 -32.9046936 39.29866028 C-35.00639722 39.30580845 -37.10809804 39.31382143 -39.20979536 39.32262725 C-44.99610873 39.34430353 -50.78238564 39.35349177 -56.56873274 39.36065137 C-62.80463678 39.37049696 -69.04050337 39.39174396 -75.27638245 39.41149902 C-87.4962576 39.4482916 -99.71612571 39.47414343 -111.93603469 39.49588916 C-121.8634359 39.5136272 -131.79082371 39.53492615 -141.71821213 39.55875206 C-143.14358107 39.56215788 -144.56895001 39.56556247 -145.99431895 39.56896585 C-148.14208725 39.57409711 -150.28985555 39.57922969 -152.43762382 39.58436991 C-172.40883773 39.63207558 -192.38005725 39.67569717 -212.35129738 39.71085072 C-213.48090258 39.71284044 -213.48090258 39.71284044 -214.6333281 39.71487036 C-218.4503536 39.72158078 -222.26737918 39.72825159 -226.08440478 39.73490671 C-226.84250578 39.73622856 -227.60060678 39.73755041 -228.38168054 39.73891232 C-229.91474395 39.74158477 -231.44780737 39.74425533 -232.9808708 39.746924 C-256.84731217 39.7885646 -280.71369049 39.8435007 -304.58007812 39.90893555 C-331.38113813 39.98239242 -358.18219482 40.04587699 -384.98331201 40.0945732 C-387.8386812 40.09979462 -390.69405032 40.10505006 -393.5494194 40.11032677 C-394.25250823 40.11161919 -394.95559705 40.1129116 -395.6799916 40.11424319 C-406.31032074 40.13398883 -416.94061126 40.16158629 -427.57091141 40.19312477 C-439.65309984 40.22895875 -451.73524422 40.25408585 -463.81748559 40.26570032 C-469.98690424 40.27192156 -476.15621315 40.2830675 -482.32559013 40.30715752 C-487.96567576 40.32905452 -493.60560372 40.33724913 -499.24572949 40.33420344 C-501.29340939 40.33555897 -503.34109321 40.34206448 -505.38873847 40.35405228 C-508.15788661 40.3695231 -510.92641519 40.36673969 -513.69558144 40.35911274 C-514.90653376 40.37248328 -514.90653376 40.37248328 -516.14194977 40.38612393 C-520.64892454 40.35043385 -521.66378808 40.33621192 -525 37 C-271.065 36.505 -271.065 36.505 -12 36 C-12 35.34 -12 34.68 -12 34 C-10.68 34 -9.36 34 -8 34 C-8.33 32.35 -8.66 30.7 -9 29 C-7.35 29 -5.7 29 -4 29 C-2.23011903 20.15059517 -2.40978859 11.01534901 -2 2 C-177.89 1.67 -353.78 1.34 -535 1 C-535 2.98 -535 4.96 -535 7 C-535.33 7 -535.66 7 -536 7 C-536 4.69 -536 2.38 -536 0 C-485.22777437 -0.11246544 -434.45554629 -0.223734 -383.68330383 -0.32835388 C-382.93232789 -0.32990168 -382.18135196 -0.33144947 -381.40761917 -0.33304417 C-365.08842855 -0.36667127 -348.76923748 -0.4000747 -332.45004592 -0.4332476 C-324.44757285 -0.44951602 -316.44509987 -0.46583389 -308.44262695 -0.48217773 C-307.24808864 -0.48461614 -307.24808864 -0.48461614 -306.02941823 -0.4871038 C-280.19891682 -0.53985461 -254.36842374 -0.59587289 -228.53793296 -0.65357857 C-202.00242998 -0.71284205 -175.46692206 -0.76882319 -148.93140346 -0.82065109 C-145.18681603 -0.82796638 -141.44222868 -0.83531934 -137.69764137 -0.84269524 C-136.96062444 -0.84414581 -136.2236075 -0.84559638 -135.46425671 -0.84709091 C-123.58157485 -0.87057506 -111.69890329 -0.89753804 -99.81623191 -0.92578938 C-87.88149586 -0.95409071 -75.94675674 -0.97875705 -64.01200541 -0.99967117 C-57.54089813 -1.01116523 -51.06980507 -1.02432754 -44.59871101 -1.04183006 C-38.68275417 -1.05779555 -32.76680739 -1.06918753 -26.85083411 -1.07683109 C-24.7027428 -1.08043369 -22.55465361 -1.08576274 -20.40657123 -1.09292836 C-17.5021002 -1.102373 -14.59768634 -1.10571185 -11.69320202 -1.10743046 C-10.4223494 -1.1137775 -10.4223494 -1.1137775 -9.12582299 -1.12025276 C-5.82402004 -1.11676622 -3.155086 -1.05169533 0 0 Z " fill="#E65B5B" transform="translate(573,293)"/>
<path d="M0 0 C0.66 0 1.32 0 2 0 C2 59.73 2 119.46 2 181 C-1.74510838 182.24836946 -5.21560196 182.1283745 -9.11535931 182.10743046 C-9.95625419 182.10689593 -10.79714907 182.1063614 -11.66352561 182.10581067 C-14.50599369 182.10276135 -17.34839087 182.09248318 -20.19084167 182.08229065 C-22.23933109 182.07859898 -24.28782135 182.07534917 -26.33631212 182.07250541 C-31.98473096 182.06337588 -37.63311805 182.04794267 -43.28151977 182.03152263 C-49.36536114 182.01492632 -55.44921304 182.00411563 -61.5330658 181.99261475 C-72.08017561 181.97187883 -82.62727253 181.9474837 -93.1743679 181.92053413 C-104.23854329 181.8922786 -115.30272036 181.86609633 -126.36690712 181.84269524 C-127.0543289 181.84124015 -127.74175069 181.83978506 -128.45000343 181.83828588 C-131.94093877 181.83090734 -135.43187419 181.82356595 -138.92280964 181.81623887 C-163.66200985 181.76424721 -188.4011974 181.70758856 -213.14038086 181.64819336 C-237.17715978 181.59049519 -261.21394206 181.53490598 -285.25073242 181.48217773 C-285.99138958 181.48055215 -286.73204673 181.47892657 -287.49514804 181.47725173 C-294.93299546 181.4609296 -302.37084297 181.4446504 -309.80869055 181.42840267 C-324.96102801 181.39530191 -340.11336484 181.36191453 -355.26570129 181.32835388 C-355.96241193 181.3268111 -356.65912257 181.32526832 -357.37694565 181.32367879 C-403.91797482 181.22058662 -450.45898858 181.11079164 -497 181 C-497 180.67 -497 180.34 -497 180 C-486.73978526 178.70716387 -476.48062393 178.87337935 -466.16137695 178.90234375 C-464.14045371 178.90424735 -462.11952999 178.90568549 -460.09860611 178.90670013 C-455.71774733 178.90982509 -451.33690796 178.91607513 -446.95605659 178.92469788 C-439.83032056 178.93857713 -432.7045891 178.94485409 -425.57884216 178.95007324 C-415.91153759 178.95768654 -406.24423832 178.96741164 -396.57693798 178.97923845 C-369.05754901 179.01278073 -341.53815109 179.02610294 -314.0187431 179.0308702 C-311.87301337 179.03125105 -309.72728365 179.03168432 -307.58155394 179.03212166 C-241.3054307 179.04483976 -175.03084484 178.81080473 -108.75549453 178.50911427 C-106.07039555 178.49691144 -103.38529621 178.48478693 -100.70019685 178.47266474 C-67.8000864 178.32411865 -34.90001923 178.16755092 -2 178 C-1.32535682 158.22841874 -0.85604559 138.48501205 -0.92483521 118.69947243 C-0.93803643 114.86366354 -0.94421976 111.02789061 -0.94897461 107.19206238 C-0.95983054 99.06552487 -0.97940972 90.93901778 -1 82.8125 C-1.02393762 73.33243189 -1.04412514 63.85238131 -1.05593872 54.37228966 C-1.0622911 50.6421961 -1.0747824 46.91215898 -1.08764648 43.18208313 C-1.11825793 28.76084207 -0.7808679 14.40067992 0 0 Z " fill="#216DB8" transform="translate(572,100)"/>
<path d="M0 0 C6.07652237 0.00750117 12.15297919 0.00484701 18.2294991 -0.00360537 C67.92358842 -0.07108505 117.54873351 0.70039571 167.21875691 2.25713682 C167.21875691 2.58713682 167.21875691 2.91713682 167.21875691 3.25713682 C67.22875691 3.25713682 -32.76124309 3.25713682 -135.78124309 3.25713682 C-135.78124309 2.92713682 -135.78124309 2.59713682 -135.78124309 2.25713682 C-90.51199806 0.43956291 -45.30233246 -0.06240742 0 0 Z " fill="#2573C6" transform="translate(342.7812430858612,75.74286317825317)"/>
<path d="M0 0 C165 0 330 0 500 0 C500 0.33 500 0.66 500 1 C335.33 1 170.66 1 1 1 C1.35437737 14.07947978 1.35437737 14.07947978 3 27 C3.66 27 4.32 27 5 27 C5 28.65 5 30.3 5 32 C5.66 32.33 6.32 32.66 7 33 C6.01 33 5.02 33 4 33 C-1.02719962 27.7717124 -1.30168583 21.33913002 -1.1875 14.5 C-1.18685547 13.76652344 -1.18621094 13.03304688 -1.18554688 12.27734375 C-1.1509458 7.97912094 -0.72143496 4.32860974 0 0 Z " fill="#DD0E09" transform="translate(38,294)"/>
<path d="M0 0 C0.03090715 3.30706511 0.06170869 6.61413036 0.09173584 9.92120361 C0.11036479 11.85543597 0.13044145 13.78966038 0.15582275 15.72381592 C0.1783147 17.44859336 0.18741761 19.17353148 0.1953125 20.8984375 C0.20578613 22.01911621 0.21625977 23.13979492 0.22705078 24.29443359 C0 27 0 27 -2 29 C-4.02481079 29.24050903 -4.02481079 29.24050903 -6.54150391 29.22705078 C-7.48232819 29.22689972 -8.42315247 29.22674866 -9.39248657 29.22659302 C-10.41023163 29.21627045 -11.42797668 29.20594788 -12.4765625 29.1953125 C-13.51694672 29.1924826 -14.55733093 29.18965271 -15.62924194 29.18673706 C-18.96127694 29.17551704 -22.29304586 29.15040915 -25.625 29.125 C-27.88020446 29.11497256 -30.13541312 29.1058463 -32.390625 29.09765625 C-37.92717454 29.07557178 -43.46356827 29.04207639 -49 29 C-49.495 28.01 -49.495 28.01 -50 27 C-33.83 26.67 -17.66 26.34 -1 26 C0.54608508 13.37697468 0.54608508 13.37697468 -3 3 C-4.65717994 2.89171279 -6.31895425 2.85314499 -7.97962952 2.84178162 C-9.0580159 2.8319928 -10.13640228 2.82220398 -11.24746704 2.81211853 C-12.4407663 2.80636307 -13.63406555 2.8006076 -14.86352539 2.79467773 C-16.11212845 2.78477814 -17.36073151 2.77487854 -18.64717102 2.76467896 C-22.08088157 2.73842755 -25.51456808 2.71659191 -28.94831777 2.69667697 C-32.5331522 2.67485576 -36.1179437 2.64744822 -39.70274353 2.62062073 C-46.4954693 2.57064141 -53.28821883 2.5257221 -60.08099121 2.48259836 C-67.81245543 2.43327066 -75.54387659 2.37833602 -83.27529919 2.32291877 C-99.18349303 2.20901834 -115.09172642 2.10219695 -131 2 C-131 1.67 -131 1.34 -131 1 C-118.64468669 0.86761404 -106.28935488 0.7371174 -93.93399811 0.60884857 C-88.19313093 0.54919354 -82.45227127 0.48895554 -76.71142578 0.42724609 C-51.14034629 0.15279985 -25.57276514 -0.09570095 0 0 Z " fill="#71A3DD" transform="translate(528,126)"/>
<path d="M0 0 C11.55 0 23.1 0 35 0 C36.28650068 5.14600272 35.9736197 9.79388436 35.75 15.0625 C35.70939453 16.57166992 35.70939453 16.57166992 35.66796875 18.11132812 C35.62800781 19.07619141 35.58804688 20.04105469 35.546875 21.03515625 C35.51432617 21.9156665 35.48177734 22.79617676 35.44824219 23.70336914 C34.91540941 26.43341158 34.04633811 27.1959914 32 29 C30.80972016 31.59915538 30.80972016 31.59915538 30 34 C29.01 34 28.02 34 27 34 C27 34.66 27 35.32 27 36 C23.19787415 37.76224294 20.26104906 38.24000941 16.08378601 38.20254517 C14.89893112 38.19688034 13.71407623 38.19121552 12.49331665 38.18537903 C11.20218964 38.16883774 9.91106262 38.15229645 8.58081055 38.13525391 C7.20078657 38.12482207 5.82075555 38.11528791 4.4407196 38.10658264 C0.7013457 38.0804563 -3.03780539 38.04178871 -6.77704263 38.00085878 C-10.68741831 37.96019188 -14.59787962 37.93107316 -18.50834656 37.90072632 C-25.91020493 37.84153163 -33.3119279 37.77196034 -40.71365851 37.69865549 C-49.14160125 37.61569295 -57.56962963 37.5443065 -65.99768507 37.47388959 C-83.33191745 37.3288018 -100.66598642 37.16918582 -118 37 C-118 36.67 -118 36.34 -118 36 C-71.47 35.67 -24.94 35.34 23 35 C23 34.34 23 33.68 23 33 C24.32 33 25.64 33 27 33 C26.67 31.35 26.34 29.7 26 28 C27.65 28 29.3 28 31 28 C31.76636091 24.53910321 32.17149371 21.23922512 32.31640625 17.69921875 C32.35451416 16.81838623 32.39262207 15.93755371 32.43188477 15.0300293 C32.47498779 13.92699463 32.51809082 12.82395996 32.5625 11.6875 C32.706875 8.160625 32.85125 4.63375 33 1 C22.11 1 11.22 1 0 1 C0 0.67 0 0.34 0 0 Z " fill="#D80F0F" transform="translate(538,294)"/>
<path d="M0 0 C1.07547089 -0.00137466 2.15094177 -0.00274933 3.25900269 -0.00416565 C4.4285701 -0.00057037 5.59813751 0.0030249 6.80314636 0.00672913 C8.66229675 0.00651009 8.66229675 0.00651009 10.55900574 0.00628662 C13.9491214 0.00686314 17.33917587 0.01187205 20.72928071 0.01886058 C24.2753597 0.02511971 27.82143953 0.02569994 31.36752319 0.02688599 C38.07869032 0.02999175 44.78984112 0.03819497 51.50100106 0.04823548 C59.14304915 0.05942004 66.78509803 0.06491297 74.42715228 0.06993091 C90.14388306 0.08037821 105.86059757 0.09796305 121.57731628 0.12025452 C121.57731628 0.45025452 121.57731628 0.78025452 121.57731628 1.12025452 C107.55486723 1.8420325 93.57627135 2.25872599 79.53541374 2.19541931 C76.59348716 2.18228613 73.65160721 2.17605065 70.70965576 2.17127991 C64.47802107 2.16004217 58.24642642 2.1407711 52.01481628 2.12025452 C44.74679898 2.09645845 37.4788037 2.0761686 30.2107563 2.0643158 C27.3405969 2.05793176 24.47050899 2.04543817 21.60037231 2.03260803 C1.59611858 0.7715119 1.59611858 0.7715119 -15.79768372 8.30775452 C-16.60205872 9.20494202 -16.60205872 9.20494202 -17.42268372 10.12025452 C-18.41268372 9.79025452 -19.40268372 9.46025452 -20.42268372 9.12025452 C-17.08145095 4.36542327 -13.75422879 1.92833919 -8.0701952 0.54964542 C-5.32949442 0.10514046 -2.77565398 -0.00274545 0 0 Z " fill="#4E8EDE" transform="translate(60.42268371582031,75.87974548339844)"/>
<path d="M0 0 C0.66 0 1.32 0 2 0 C2.02339336 17.44637536 2.04101076 34.89274579 2.05181217 52.33913326 C2.05696147 60.44036827 2.06397807 68.54159352 2.07543945 76.64282227 C2.0854281 83.70646645 2.09186337 90.77010355 2.09408849 97.8337546 C2.09538851 101.57150528 2.09842931 105.30923573 2.10573006 109.0469799 C2.11382708 113.22656006 2.11398845 117.40610538 2.11352539 121.58569336 C2.11712067 122.81568558 2.12071594 124.0456778 2.12442017 125.3129425 C2.11685868 131.6291917 1.84287724 137.73857776 1 144 C0.67 144 0.34 144 0 144 C-1.09801673 74.47938871 -1.09801673 74.47938871 -1.125 44.4375 C-1.12749756 43.4913382 -1.12999512 42.54517639 -1.13256836 41.57034302 C-1.16309525 27.69022321 -0.70292859 13.86188082 0 0 Z " fill="#244E9C" transform="translate(572,100)"/>
<path d="M0 0 C0.99 0.33 1.98 0.66 3 1 C3 12.88 3 24.76 3 37 C-0.18647576 38.06215859 -1.75122186 37.95296772 -5.03572083 37.57533264 C-10.51602009 37.01510274 -15.92273391 36.83006258 -21.4284668 36.79467773 C-22.40543015 36.78477814 -23.38239349 36.77487854 -24.38896179 36.76467896 C-27.57569059 36.73342515 -30.76243422 36.70845147 -33.94921875 36.68359375 C-36.1755255 36.66299291 -38.4018286 36.64199569 -40.62812805 36.62062073 C-46.45589228 36.56572299 -52.28368989 36.51617278 -58.11151123 36.46777344 C-64.07111543 36.4173209 -70.03067183 36.36175947 -75.99023438 36.30664062 C-87.6601153 36.19945478 -99.33003794 36.0979238 -111 36 C-111 35.67 -111 35.34 -111 35 C-74.7 34.67 -38.4 34.34 -1 34 C-0.67 22.78 -0.34 11.56 0 0 Z " fill="#0964C1" transform="translate(571,244)"/>
<path d="M0 0 C40.59 0 81.18 0 123 0 C123 0.66 123 1.32 123 2 C123.99 2.495 123.99 2.495 125 3 C112.79161715 2.85822246 100.5832881 2.71221319 88.375 2.5625 C87.02661104 2.54596815 87.02661104 2.54596815 85.6509819 2.52910233 C57.09649785 2.17769247 28.54771751 1.73006662 0 1 C0 0.67 0 0.34 0 0 Z " fill="#518DD3" transform="translate(434,76)"/>
<path d="M0 0 C1.26092972 0.00212242 1.26092972 0.00212242 2.54733276 0.00428772 C5.23732025 0.00989388 7.92722509 0.02244739 10.6171875 0.03515625 C12.43880088 0.04017046 14.26041557 0.0447335 16.08203125 0.04882812 C20.55211527 0.05986531 25.02213736 0.07713405 29.4921875 0.09765625 C29.55002592 4.38926672 29.5857287 8.6807777 29.6171875 12.97265625 C29.63394531 14.19597656 29.65070313 15.41929687 29.66796875 16.6796875 C29.67763672 18.42958984 29.67763672 18.42958984 29.6875 20.21484375 C29.70321045 21.83302002 29.70321045 21.83302002 29.71923828 23.48388672 C29.4921875 26.09765625 29.4921875 26.09765625 27.4921875 28.09765625 C24.41943359 28.32470703 24.41943359 28.32470703 20.515625 28.29296875 C19.8303775 28.29013885 19.14513 28.28730896 18.43911743 28.28439331 C16.24829723 28.27318906 14.05788434 28.24808484 11.8671875 28.22265625 C10.3828184 28.21262673 8.8984429 28.20350083 7.4140625 28.1953125 C3.77330489 28.17324919 0.13278594 28.13871801 -3.5078125 28.09765625 C-3.5078125 27.43765625 -3.5078125 26.77765625 -3.5078125 26.09765625 C-2.63979004 26.0726001 -1.77176758 26.04754395 -0.87744141 26.02172852 C2.33931913 25.92666141 5.55591599 25.82742422 8.77246094 25.7253418 C10.1653134 25.68199779 11.55821881 25.64032229 12.95117188 25.6003418 C14.95195401 25.54262693 16.95254609 25.47843756 18.953125 25.4140625 C20.75982666 25.35907593 20.75982666 25.35907593 22.60302734 25.30297852 C25.43215117 25.28712638 25.43215117 25.28712638 27.4921875 24.09765625 C27.8221875 16.83765625 28.1521875 9.57765625 28.4921875 2.09765625 C16.6121875 2.09765625 4.7321875 2.09765625 -7.5078125 2.09765625 C-7.8378125 3.41765625 -8.1678125 4.73765625 -8.5078125 6.09765625 C-11.26831257 8.32729092 -12.66644762 8.08179274 -16.2578125 7.72265625 C-17.3303125 7.51640625 -18.4028125 7.31015625 -19.5078125 7.09765625 C-18.8478125 5.44765625 -18.1878125 3.79765625 -17.5078125 2.09765625 C-16.8478125 2.42765625 -16.1878125 2.75765625 -15.5078125 3.09765625 C-15.5078125 3.42765625 -15.5078125 3.75765625 -15.5078125 4.09765625 C-13.8578125 4.42765625 -12.2078125 4.75765625 -10.5078125 5.09765625 C-10.5078125 3.77765625 -10.5078125 2.45765625 -10.5078125 1.09765625 C-7.22889325 -0.54180338 -3.60167716 -0.02264553 0 0 Z " fill="#4779C0" transform="translate(460.5078125,158.90234375)"/>
<path d="M0 0 C1.24040039 0.07831055 1.24040039 0.07831055 2.50585938 0.15820312 C4.52515478 0.28659763 6.54389629 0.42365424 8.5625 0.5625 C8.5625 0.8925 8.5625 1.2225 8.5625 1.5625 C5.66700497 1.7579384 2.77141002 1.94411395 -0.125 2.125 C-1.34993164 2.20911133 -1.34993164 2.20911133 -2.59960938 2.29492188 C-6.73264123 2.54591571 -10.39574282 2.67377743 -14.4375 1.5625 C-15.38087376 4.39262127 -15.55922829 6.10549918 -15.55102539 9.03393555 C-15.55094986 9.93464279 -15.55087433 10.83535004 -15.55079651 11.76335144 C-15.54563522 12.73218765 -15.54047394 13.70102386 -15.53515625 14.69921875 C-15.5337413 15.69379593 -15.53232635 16.68837311 -15.53086853 17.71308899 C-15.52526761 20.89208982 -15.51271496 24.07102043 -15.5 27.25 C-15.49498512 29.40429586 -15.49042219 31.55859282 -15.48632812 33.71289062 C-15.47529788 38.99611774 -15.45855886 44.27930385 -15.4375 49.5625 C-12.70643489 50.47285504 -11.13856761 50.68465713 -8.33325195 50.67602539 C-7.51262772 50.67594986 -6.69200348 50.67587433 -5.84651184 50.67579651 C-4.96517075 50.67063522 -4.08382965 50.66547394 -3.17578125 50.66015625 C-2.26998825 50.6587413 -1.36419525 50.65732635 -0.43095398 50.65586853 C2.46273091 50.65027001 5.35633849 50.63771781 8.25 50.625 C10.21158742 50.61998481 12.17317606 50.61542193 14.13476562 50.61132812 C18.94404021 50.60030107 23.753257 50.58303747 28.5625 50.5625 C28.5625 50.8925 28.5625 51.2225 28.5625 51.5625 C22.08629704 52.41183809 15.76867611 52.61340199 9.25 52.5625 C-3.77559935 52.19219182 -3.77559935 52.19219182 -16.4375 54.5625 C-16.4375 53.5725 -16.4375 52.5825 -16.4375 51.5625 C-17.0975 51.5625 -17.7575 51.5625 -18.4375 51.5625 C-18.48709611 45.42440964 -18.52331249 39.28643707 -18.54736328 33.14819336 C-18.55739427 31.06190966 -18.57102226 28.97563992 -18.58837891 26.8894043 C-18.61275494 23.88326562 -18.62401236 20.87731355 -18.6328125 17.87109375 C-18.64313507 16.94477646 -18.65345764 16.01845917 -18.66409302 15.06407166 C-18.66499151 9.82769432 -18.15190648 5.51885507 -16.4375 0.5625 C-10.82944023 -0.4537256 -5.67252748 -0.39767114 0 0 Z " fill="#5180CE" transform="translate(124.4375,126.4375)"/>
<path d="M0 0 C0.51171875 2.6015625 0.51171875 2.6015625 0.6875 5.625 C0.78611328 7.12933594 0.78611328 7.12933594 0.88671875 8.6640625 C0.94279297 9.82035156 0.94279297 9.82035156 1 11 C0.01 10.67 -0.98 10.34 -2 10 C-2 7.36 -2 4.72 -2 2 C-6.16404764 0.83338048 -10.1898068 0.87423937 -14.484375 0.90234375 C-15.29996887 0.9037587 -16.11556274 0.90517365 -16.95587158 0.90663147 C-19.55395212 0.91221697 -22.15194563 0.92476679 -24.75 0.9375 C-26.51432167 0.94251688 -28.27864469 0.94707946 -30.04296875 0.95117188 C-34.36203945 0.96132961 -38.68092262 0.98090781 -43 1 C-42.67 8.26 -42.34 15.52 -42 23 C-41.34 23.33 -40.68 23.66 -40 24 C-41.875 24.625 -41.875 24.625 -44 25 C-46 23 -46 23 -46.22705078 20.56982422 C-46.21657715 19.5748291 -46.20610352 18.57983398 -46.1953125 17.5546875 C-46.18886719 16.47832031 -46.18242187 15.40195313 -46.17578125 14.29296875 C-46.15902344 13.16503906 -46.14226562 12.03710938 -46.125 10.875 C-46.11597656 9.73933594 -46.10695313 8.60367188 -46.09765625 7.43359375 C-46.07403098 4.62218701 -46.04109013 1.81119702 -46 -1 C-39.93139109 -1.19224417 -33.86259269 -1.37097055 -27.79321289 -1.53710938 C-25.72799981 -1.59555421 -23.6628883 -1.65770985 -21.59790039 -1.72363281 C-18.63186129 -1.81767969 -15.66571442 -1.89843105 -12.69921875 -1.9765625 C-11.7741301 -2.00875885 -10.84904144 -2.0409552 -9.8959198 -2.0741272 C-9.03525406 -2.09429901 -8.17458832 -2.11447083 -7.2878418 -2.13525391 C-6.15199898 -2.16856308 -6.15199898 -2.16856308 -4.99320984 -2.20254517 C-3 -2 -3 -2 0 0 Z " fill="#3178BE" transform="translate(478,142)"/>
<path d="M0 0 C3.81936528 1.55603771 6.26044438 3.95604931 9 7 C9 7.66 9 8.32 9 9 C9.639375 9.268125 10.27875 9.53625 10.9375 9.8125 C13 11 13 11 14 14 C14.5775 14.28875 15.155 14.5775 15.75 14.875 C18.79225245 16.39612622 20.73842507 18.48713896 23 21 C23 21.66 23 22.32 23 23 C23.66 23.33 24.32 23.66 25 24 C24.01 24.33 23.02 24.66 22 25 C21.3503125 24.0409375 21.3503125 24.0409375 20.6875 23.0625 C19.08760823 20.73253997 19.08760823 20.73253997 16 20 C15.731875 19.195625 15.46375 18.39125 15.1875 17.5625 C14.21914825 14.69268313 14.21914825 14.69268313 11.0625 13.875 C10.051875 13.58625 9.04125 13.2975 8 13 C5.50394259 11.02036826 5.03584537 10.10753611 4 7 C3.34 7 2.68 7 2 7 C2.66 9.31 3.32 11.62 4 14 C3.34 14 2.68 14 2 14 C1.67 20.27 1.34 26.54 1 33 C0.34 33 -0.32 33 -1 33 C-1.02469081 28.6217488 -1.04285557 24.24353433 -1.05493164 19.86523438 C-1.05996514 18.37531834 -1.06679242 16.88540726 -1.07543945 15.39550781 C-1.08754805 13.25584696 -1.09323807 11.11625132 -1.09765625 8.9765625 C-1.10289307 7.68830566 -1.10812988 6.40004883 -1.11352539 5.07275391 C-1 2 -1 2 0 0 Z " fill="#206CC9" transform="translate(286,192)"/>
<path d="M0 0 C12.54 0 25.08 0 38 0 C38 0.33 38 0.66 38 1 C25.79 1.33 13.58 1.66 1 2 C1.144375 7.424375 1.28875 12.84875 1.4375 18.4375 C1.50215454 21.00809204 1.50215454 21.00809204 1.56811523 23.63061523 C1.60622391 24.98161896 1.64469181 26.33261263 1.68359375 27.68359375 C1.70006958 28.39100708 1.71654541 29.09842041 1.73352051 29.82727051 C1.54761519 33.20218988 1.54761519 33.20218988 3 36 C6.46844036 36.06071668 9.92282182 36.02072721 13.390625 35.9609375 C18.0485833 35.91224804 22.40534038 36.22000473 27 37 C27 37.33 27 37.66 27 38 C13.635 38.495 13.635 38.495 0 39 C-1.55043334 35.89913331 -1.1420075 32.62099234 -1.1328125 29.21875 C-1.13376923 28.44946167 -1.13472595 27.68017334 -1.13571167 26.88757324 C-1.13639254 25.26017169 -1.13454473 23.63276743 -1.13037109 22.00537109 C-1.1250215 19.51002927 -1.13031919 17.01486745 -1.13671875 14.51953125 C-1.13605795 12.94010377 -1.13477675 11.3606764 -1.1328125 9.78125 C-1.13483673 9.0322644 -1.13686096 8.28327881 -1.13894653 7.51159668 C-1.11496122 2.22992243 -1.11496122 2.22992243 0 0 Z " fill="#528CC8" transform="translate(94,192)"/>
<path d="M0 0 C44.55 0 89.1 0 135 0 C135 0.33 135 0.66 135 1 C134.35616049 1.00423194 133.71232098 1.00846388 133.04897118 1.01282406 C117.37453687 1.11618098 101.70014946 1.22482622 86.02579308 1.33933926 C78.44575897 1.39458994 70.86572016 1.44805839 63.28564453 1.49731445 C56.67796232 1.54025635 50.07031362 1.58655928 43.46268332 1.63687855 C39.96482197 1.66339906 36.46696691 1.68824977 32.96906662 1.70907402 C29.06185223 1.7323981 25.15471643 1.76322671 21.24755859 1.79467773 C20.09093719 1.8004332 18.9343158 1.80618866 17.74264526 1.81211853 C16.67421387 1.82190735 15.60578247 1.83169617 14.50497437 1.84178162 C13.11951951 1.85146044 13.11951951 1.85146044 11.70607567 1.8613348 C8.90289614 1.93014716 8.90289614 1.93014716 5.8434391 2.69738865 C4.43593675 2.84718127 4.43593675 2.84718127 3 3 C2.01 2.01 1.02 1.02 0 0 Z " fill="#D80E0F" transform="translate(48,330)"/>
<path d="M0 0 C11.55 0 23.1 0 35 0 C36.28650068 5.14600272 35.9736197 9.79388436 35.75 15.0625 C35.70939453 16.57166992 35.70939453 16.57166992 35.66796875 18.11132812 C35.62800781 19.07619141 35.58804688 20.04105469 35.546875 21.03515625 C35.49805176 22.35592163 35.49805176 22.35592163 35.44824219 23.70336914 C34.91540941 26.43341158 34.04633811 27.1959914 32 29 C30.80972016 31.59915538 30.80972016 31.59915538 30 34 C29.01 34 28.02 34 27 34 C27 34.66 27 35.32 27 36 C24.69 36.66 22.38 37.32 20 38 C20.33 37.01 20.66 36.02 21 35 C21.66 35 22.32 35 23 35 C23 34.34 23 33.68 23 33 C24.32 33 25.64 33 27 33 C26.505 30.525 26.505 30.525 26 28 C27.65 28 29.3 28 31 28 C31.76636091 24.53910321 32.17149371 21.23922512 32.31640625 17.69921875 C32.35451416 16.81838623 32.39262207 15.93755371 32.43188477 15.0300293 C32.47498779 13.92699463 32.51809082 12.82395996 32.5625 11.6875 C32.706875 8.160625 32.85125 4.63375 33 1 C22.11 1 11.22 1 0 1 C0 0.67 0 0.34 0 0 Z " fill="#D91515" transform="translate(538,294)"/>
<path d="M0 0 C0.99 0.33 1.98 0.66 3 1 C5.91446382 1.09736925 8.80433119 1.13993588 11.71875 1.1328125 C12.57303589 1.13376923 13.42732178 1.13472595 14.30749512 1.13571167 C16.11303786 1.13639193 17.91858306 1.13454835 19.72412109 1.13037109 C22.48931364 1.12502068 25.25434376 1.13032127 28.01953125 1.13671875 C29.77343786 1.13605794 31.52734437 1.13477672 33.28125 1.1328125 C34.52352356 1.13584885 34.52352356 1.13584885 35.79089355 1.13894653 C39.11287382 1.12536316 41.82653425 1.05782192 45 0 C44.67 1.98 44.34 3.96 44 6 C43.505 5.01 43.505 5.01 43 4 C42.43845215 4.16226074 41.8769043 4.32452148 41.29833984 4.49169922 C38.8681947 5.02915006 36.71351868 5.12939434 34.2265625 5.1328125 C32.8653125 5.13474609 32.8653125 5.13474609 31.4765625 5.13671875 C30.53554688 5.13285156 29.59453125 5.12898437 28.625 5.125 C27.69171875 5.12886719 26.7584375 5.13273438 25.796875 5.13671875 C21.05911491 5.13000804 16.67674478 4.81657449 12 4 C11.01 4.495 11.01 4.495 10 5 C9.34786708 7.02463255 9.34786708 7.02463255 9 9 C8.01 9 7.02 9 6 9 C6 7.68 6 6.36 6 5 C4.68 5 3.36 5 2 5 C2 4.01 2 3.02 2 2 C1.34 2 0.68 2 0 2 C0 1.34 0 0.68 0 0 Z " fill="#3C83CD" transform="translate(242,227)"/>
<path d="M0 0 C0.66 0.33 1.32 0.66 2 1 C2.0246501 6.10863896 2.04283607 11.21724359 2.05493164 16.32592773 C2.05997204 18.06519168 2.0668043 19.80445136 2.07543945 21.54370117 C2.08751792 24.03825937 2.09323108 26.53276173 2.09765625 29.02734375 C2.10281754 29.80963852 2.10797882 30.59193329 2.11329651 31.39793396 C2.11349226 33.26567114 2.06199694 35.13329204 2 37 C1 38 1 38 -1.05641174 38.12025452 C-1.96020065 38.11803391 -2.86398956 38.11581329 -3.79516602 38.11352539 C-4.81614883 38.11344986 -5.83713165 38.11337433 -6.88905334 38.11329651 C-7.9994548 38.10813522 -9.10985626 38.10297394 -10.25390625 38.09765625 C-11.38448959 38.0962413 -12.51507294 38.09482635 -13.67991638 38.09336853 C-17.30747065 38.08775019 -20.93496424 38.07519458 -24.5625 38.0625 C-27.01497307 38.05748736 -29.4674471 38.05292405 -31.91992188 38.04882812 C-37.94663545 38.0377748 -43.97331339 38.02101884 -50 38 C-50 37.67 -50 37.34 -50 37 C-33.5 36.67 -17 36.34 0 36 C0 24.12 0 12.24 0 0 Z " fill="#6B9FCB" transform="translate(183,179)"/>
<path d="M0 0 C0.02505615 0.68102783 0.0501123 1.36205566 0.07592773 2.0637207 C0.19190952 5.14683755 0.31462616 8.22965046 0.4375 11.3125 C0.47681641 12.38435547 0.51613281 13.45621094 0.55664062 14.56054688 C0.61948242 16.10258789 0.61948242 16.10258789 0.68359375 17.67578125 C0.72025146 18.62364502 0.75690918 19.57150879 0.79467773 20.5480957 C0.91430187 23.136171 0.91430187 23.136171 2 26 C4.10584438 26.80563638 4.10584438 26.80563638 6.5625 27.1875 C7.80193359 27.42533203 7.80193359 27.42533203 9.06640625 27.66796875 C10.02353516 27.83232422 10.02353516 27.83232422 11 28 C9.38405168 30.04119788 7.7143618 32.04072937 6 34 C5.34 34 4.68 34 4 34 C3.34 35.32 2.68 36.64 2 38 C1.01 38 0.02 38 -1 38 C-2.0955991 28.90261458 -2.05786749 19.89760638 -1.875 10.74780273 C-1.86339844 9.77657471 -1.85179687 8.80534668 -1.83984375 7.8046875 C-1.82300537 6.92796387 -1.80616699 6.05124023 -1.78881836 5.14794922 C-1.79176629 2.78521625 -1.79176629 2.78521625 -4 1 C-1 0 -1 0 0 0 Z " fill="#2675C3" transform="translate(287,127)"/>
<path d="M0 0 C0 0.66 0 1.32 0 2 C-23.76 2 -47.52 2 -72 2 C-72 1.67 -72 1.34 -72 1 C-59.62916309 0.35180676 -47.25594999 -0.1563697 -34.875 -0.5625 C-33.57232178 -0.60624756 -32.26964355 -0.64999512 -30.92749023 -0.69506836 C-10.30689982 -1.35172457 -10.30689982 -1.35172457 0 0 Z " fill="#2D65BD" transform="translate(183,178)"/>
<path d="M0 0 C17.49 0 34.98 0 53 0 C53 0.33 53 0.66 53 1 C35.84 1 18.68 1 1 1 C1.35437737 14.07947978 1.35437737 14.07947978 3 27 C3.66 27 4.32 27 5 27 C5 28.65 5 30.3 5 32 C5.66 32.33 6.32 32.66 7 33 C6.01 33 5.02 33 4 33 C-1.02719962 27.7717124 -1.30168583 21.33913002 -1.1875 14.5 C-1.18685547 13.76652344 -1.18621094 13.03304688 -1.18554688 12.27734375 C-1.1509458 7.97912094 -0.72143496 4.32860974 0 0 Z " fill="#DC100E" transform="translate(38,294)"/>
<path d="M0 0 C0.99 1.485 0.99 1.485 2 3 C1.67 3.99 1.34 4.98 1 6 C0.48189758 5.83923477 -0.03620483 5.67846954 -0.57000732 5.51283264 C-3.70424742 4.8513736 -6.67562971 4.83501905 -9.87988281 4.79467773 C-10.56321686 4.78477814 -11.2465509 4.77487854 -11.95059204 4.76467896 C-14.20140154 4.73317956 -16.45223211 4.70835248 -18.703125 4.68359375 C-20.26683083 4.66301423 -21.83053122 4.64201749 -23.39422607 4.62062073 C-27.50410551 4.56550314 -31.61403428 4.51604852 -35.72399902 4.46777344 C-39.92021054 4.41748298 -44.11635065 4.36183634 -48.3125 4.30664062 C-56.54160624 4.19918525 -64.77077233 4.09771241 -73 4 C-73 3.67 -73 3.34 -73 3 C-54.81467865 2.42526008 -36.6331068 1.89927221 -18.4375 1.875 C-16.48831665 1.86823242 -16.48831665 1.86823242 -14.49975586 1.86132812 C-13.30229736 1.86326172 -12.10483887 1.86519531 -10.87109375 1.8671875 C-9.30766235 1.86887939 -9.30766235 1.86887939 -7.71264648 1.87060547 C-5.31054864 1.98518668 -3.29356442 2.30942761 -1 3 C-0.67 2.01 -0.34 1.02 0 0 Z " fill="#3071BF" transform="translate(219,162)"/>
<path d="M0 0 C0.66 0 1.32 0 2 0 C2.02464513 6.1055471 2.04283371 12.21106551 2.05493164 18.31665039 C2.05997288 20.39543156 2.06680574 22.47420916 2.07543945 24.55297852 C2.08751422 27.53402586 2.09323024 30.51502649 2.09765625 33.49609375 C2.10281754 34.43150497 2.10797882 35.3669162 2.11329651 36.33067322 C2.11337204 37.19149002 2.11344757 38.05230682 2.11352539 38.93920898 C2.115746 39.70087875 2.11796661 40.46254852 2.12025452 41.24729919 C2 43 2 43 1 44 C0.8415735 46.0708472 0.74875578 48.14678029 0.68359375 50.22265625 C0.64169922 51.48271484 0.59980469 52.74277344 0.55664062 54.04101562 C0.51682404 55.38150736 0.47711186 56.7220022 0.4375 58.0625 C0.39431958 59.40691523 0.35070544 60.7513166 0.30664062 62.09570312 C0.20014642 65.3970234 0.0981354 68.69842236 0 72 C-0.33 72 -0.66 72 -1 72 C-1.02587234 65.44279854 -1.0430792 58.88561074 -1.05493164 52.32836914 C-1.05988532 50.1089631 -1.0666501 47.88956018 -1.07543945 45.67016602 C-1.13422377 30.41736469 -0.8137469 15.23201284 0 0 Z " fill="#1A58B0" transform="translate(572,100)"/>
<path d="M0 0 C0.33 0 0.66 0 1 0 C1.03758423 1.11858398 1.03758423 1.11858398 1.07592773 2.25976562 C1.19273218 5.67331596 1.31507245 9.0866469 1.4375 12.5 C1.47681641 13.67304688 1.51613281 14.84609375 1.55664062 16.0546875 C1.77753051 22.10367198 2.19387923 28.00406036 3 34 C3.35778903 42.03972988 2.79415372 50.00173757 2 58 C0.68 57.67 -0.64 57.34 -2 57 C-1.34 57 -0.68 57 0 57 C0 38.19 0 19.38 0 0 Z " fill="#397BCB" transform="translate(222,170)"/>
<path d="M0 0 C5.49941599 0.11820571 10.99864965 0.24245121 16.49780273 0.37231445 C18.36885866 0.41564622 20.23995369 0.45732257 22.11108398 0.49731445 C24.79943631 0.55505949 27.48759215 0.61874181 30.17578125 0.68359375 C31.01337479 0.70030624 31.85096832 0.71701874 32.71394348 0.73423767 C36.03673288 0.81914061 38.82752018 0.94250673 42 2 C42 2.66 42 3.32 42 4 C20.22 3.505 20.22 3.505 -2 3 C-2.33 3.99 -2.66 4.98 -3 6 C-3 4.35 -3 2.7 -3 1 C-2.01 1.33 -1.02 1.66 0 2 C0 1.34 0 0.68 0 0 Z " fill="#0D63BB" transform="translate(244,124)"/>
<path d="M0 0 C1.3808654 0.0001133 1.3808654 0.0001133 2.78962708 0.00022888 C4.26020821 0.00797081 4.26020821 0.00797081 5.76049805 0.01586914 C6.77444138 0.01728409 7.7883847 0.01869904 8.83305359 0.02015686 C12.06280501 0.02574211 15.29248642 0.03829194 18.5222168 0.05102539 C20.71557517 0.0560423 22.90893463 0.06060487 25.10229492 0.06469727 C30.47145932 0.07570671 35.84058306 0.0924302 41.2097168 0.11352539 C41.2097168 0.44352539 41.2097168 0.77352539 41.2097168 1.11352539 C39.77474854 1.15110962 39.77474854 1.15110962 38.31079102 1.18945312 C34.69123559 1.28509703 31.07180398 1.38490457 27.45239258 1.48583984 C25.89903704 1.52860597 24.34565179 1.57030877 22.79223633 1.61083984 C17.5967097 1.74685719 12.40315447 1.91288539 7.2097168 2.11352539 C6.5321936 2.13811829 5.85467041 2.16271118 5.15661621 2.18804932 C3.25955698 2.26318443 1.36346618 2.36167114 -0.5324707 2.46118164 C-2.13517822 2.54057983 -2.13517822 2.54057983 -3.77026367 2.62158203 C-9.30496892 3.52315285 -13.08945323 5.98567657 -16.7902832 10.11352539 C-17.7802832 9.78352539 -18.7702832 9.45352539 -19.7902832 9.11352539 C-16.44040921 4.34639702 -13.10272727 1.90428338 -7.39826965 0.54249573 C-4.87522973 0.12749768 -2.55396286 -0.00703571 0 0 Z " fill="#68A0E8" transform="translate(59.790283203125,75.886474609375)"/>
<path d="M0 0 C0.33 0 0.66 0 1 0 C1.05785647 3.95827235 1.09354717 7.9164367 1.125 11.875 C1.14175781 13.00292969 1.15851563 14.13085938 1.17578125 15.29296875 C1.18544922 16.90751953 1.18544922 16.90751953 1.1953125 18.5546875 C1.21102295 20.04718018 1.21102295 20.04718018 1.22705078 21.56982422 C1 24 1 24 -1 26 C-4.07275391 26.22705078 -4.07275391 26.22705078 -7.9765625 26.1953125 C-8.66181 26.1924826 -9.3470575 26.18965271 -10.05307007 26.18673706 C-12.24389027 26.17553281 -14.43430316 26.15042859 -16.625 26.125 C-18.1093691 26.11497048 -19.5937446 26.10584458 -21.078125 26.09765625 C-24.71888261 26.07559294 -28.35940156 26.04106176 -32 26 C-32 25.34 -32 24.68 -32 24 C-31.13197754 23.97494385 -30.26395508 23.9498877 -29.36962891 23.92407227 C-26.15286837 23.82900516 -22.93627151 23.72976797 -19.71972656 23.62768555 C-18.3268741 23.58434154 -16.93396869 23.54266604 -15.54101562 23.50268555 C-13.54023349 23.44497068 -11.53964141 23.38078131 -9.5390625 23.31640625 C-7.73236084 23.26141968 -7.73236084 23.26141968 -5.88916016 23.20532227 C-3.06003633 23.18947013 -3.06003633 23.18947013 -1 22 C-0.67 14.74 -0.34 7.48 0 0 Z " fill="#508ACC" transform="translate(489,161)"/>
<path d="M0 0 C0.99 0.33 1.98 0.66 3 1 C3 12.88 3 24.76 3 37 C1.515 37.495 1.515 37.495 0 38 C-0.66 37.34 -1.32 36.68 -2 36 C-1.01 35.505 -1.01 35.505 0 35 C-0.16749756 34.48791992 -0.33499512 33.97583984 -0.50756836 33.44824219 C-1.16449401 30.1821785 -1.00169508 27.15706674 -0.87890625 23.828125 C-0.85529526 23.1457074 -0.83168427 22.46328979 -0.80735779 21.76019287 C-0.7310504 19.58989942 -0.64688594 17.41999286 -0.5625 15.25 C-0.50924627 13.77475824 -0.45650611 12.29949784 -0.40429688 10.82421875 C-0.2754805 7.21591088 -0.13961806 3.6079079 0 0 Z " fill="#1655AC" transform="translate(571,244)"/>
<path d="M0 0 C0.49242187 0.65339355 0.98484375 1.30678711 1.4921875 1.97998047 C4.93149127 4.75030751 7.91070096 4.47071868 12.125 4.3203125 C12.90891113 4.30990936 13.69282227 4.29950623 14.50048828 4.28878784 C17.00108706 4.25322413 19.50003157 4.19091526 22 4.125 C24.49980709 4.06967325 26.99937363 4.02024583 29.49951172 3.9826355 C31.05343736 3.95822066 32.60724106 3.92310945 34.16064453 3.87600708 C37.95210859 3.80601265 40.78861648 3.85522455 44 6 C29.65916354 7.02565369 15.37342318 7.11352035 1 7 C0.34 5.02 -0.32 3.04 -1 1 C-0.67 0.67 -0.34 0.34 0 0 Z " fill="#598BC9" transform="translate(319,224)"/>
<path d="M0 0 C0.33 0 0.66 0 1 0 C1.33 7.26 1.66 14.52 2 22 C3.505625 21.814375 5.01125 21.62875 6.5625 21.4375 C16.68839218 20.55804977 26.87262841 21.43236262 37 22 C37 22.33 37 22.66 37 23 C24.46 23 11.92 23 -1 23 C-1 5 -1 5 0 0 Z " fill="#1559B3" transform="translate(146,142)"/>
<path d="M0 0 C0.99 0.495 0.99 0.495 2 1 C3.93714665 1.14232397 5.87872286 1.226269 7.8203125 1.28125 C8.9959375 1.31863281 10.1715625 1.35601562 11.3828125 1.39453125 C13.23519531 1.44673828 13.23519531 1.44673828 15.125 1.5 C29.79026233 1.92123626 29.79026233 1.92123626 37 3 C36.01 3.66 35.02 4.32 34 5 C33.34 4.67 32.68 4.34 32 4 C31.67 4.66 31.34 5.32 31 6 C30.67 5.67 30.34 5.34 30 5 C28.32788603 4.90062566 26.65162559 4.86919907 24.9765625 4.8671875 C23.955625 4.86589844 22.9346875 4.86460937 21.8828125 4.86328125 C20.80773437 4.86714844 19.73265625 4.87101563 18.625 4.875 C17.55765625 4.87113281 16.4903125 4.86726562 15.390625 4.86328125 C13.85535156 4.86521484 13.85535156 4.86521484 12.2890625 4.8671875 C11.34756348 4.86831543 10.40606445 4.86944336 9.43603516 4.87060547 C6.85940961 4.89938431 6.85940961 4.89938431 4 6 C2.62437146 4.71034824 1.29233607 3.37310707 0 2 C0 1.34 0 0.68 0 0 Z " fill="#0957BE" transform="translate(172,152)"/>
<path d="M0 0 C5.61 0 11.22 0 17 0 C17.66 1.98 18.32 3.96 19 6 C19.66 6.33 20.32 6.66 21 7 C18.69 7.33 16.38 7.66 14 8 C14.33 6.35 14.66 4.7 15 3 C10.05 3 5.1 3 0 3 C0 2.01 0 1.02 0 0 Z " fill="#3572C3" transform="translate(434,178)"/>
<path d="M0 0 C0.33 0 0.66 0 1 0 C1.02505615 0.84296631 1.0501123 1.68593262 1.07592773 2.55444336 C1.17088155 5.67241674 1.27012448 8.79021503 1.37231445 11.90795898 C1.41571223 13.25914147 1.4573837 14.61038053 1.49731445 15.96166992 C1.55489952 17.90036701 1.61914298 19.83886276 1.68359375 21.77734375 C1.72025146 22.94515381 1.75690918 24.11296387 1.79467773 25.31616211 C1.70076188 27.91779795 1.70076188 27.91779795 3 29 C6.46844036 29.06071668 9.92282182 29.02072721 13.390625 28.9609375 C18.0485833 28.91224804 22.40534038 29.22000473 27 30 C27 30.33 27 30.66 27 31 C13.635 31.495 13.635 31.495 0 32 C0 21.44 0 10.88 0 0 Z " fill="#5983BD" transform="translate(94,199)"/>
<path d="M0 0 C1.43739513 -0.02712066 2.87493863 -0.04645067 4.3125 -0.0625 C5.51326172 -0.07990234 5.51326172 -0.07990234 6.73828125 -0.09765625 C9 0 9 0 12 1 C12 1.66 12 2.32 12 3 C12.99 3 13.98 3 15 3 C14.67 6.3 14.34 9.6 14 13 C13.67 13 13.34 13 13 13 C12.855625 11.865625 12.71125 10.73125 12.5625 9.5625 C12.38828522 6.19222799 12.38828522 6.19222799 11 5 C7.84340691 4.97363228 4.70155251 5.02911068 1.546875 5.12695312 C-2.22074458 5.18925812 -3.77803199 5.14797867 -7 3 C-3.535 2.505 -3.535 2.505 0 2 C0 1.34 0 0.68 0 0 Z " fill="#4189D2" transform="translate(349,124)"/>
<path d="M0 0 C0.99 0.33 1.98 0.66 3 1 C3.042721 2.66611905 3.04063832 4.33382885 3 6 C2.67 6.33 2.34 6.66 2 7 C1.84193469 8.92478813 1.748865 10.8549921 1.68359375 12.78515625 C1.64169922 13.95498047 1.59980469 15.12480469 1.55664062 16.33007812 C1.49766602 18.17762695 1.49766602 18.17762695 1.4375 20.0625 C1.39431641 21.29806641 1.35113281 22.53363281 1.30664062 23.80664062 C1.20015802 26.87097335 1.09814576 29.93539073 1 33 C0.34 33 -0.32 33 -1 33 C-1.02469081 28.6217488 -1.04285557 24.24353433 -1.05493164 19.86523438 C-1.05996514 18.37531834 -1.06679242 16.88540726 -1.07543945 15.39550781 C-1.08754805 13.25584696 -1.09323807 11.11625132 -1.09765625 8.9765625 C-1.10289307 7.68830566 -1.10812988 6.40004883 -1.11352539 5.07275391 C-1 2 -1 2 0 0 Z " fill="#3A73B9" transform="translate(286,192)"/>
<path d="M0 0 C0.33 0.99 0.66 1.98 1 3 C8.59 3 16.18 3 24 3 C24 3.66 24 4.32 24 5 C23.35450195 4.99476318 22.70900391 4.98952637 22.04394531 4.98413086 C19.11264015 4.96331343 16.18135057 4.95032466 13.25 4.9375 C12.23421875 4.92912109 11.2184375 4.92074219 10.171875 4.91210938 C9.1921875 4.90888672 8.2125 4.90566406 7.203125 4.90234375 C6.30239258 4.89710693 5.40166016 4.89187012 4.47363281 4.88647461 C2.15797159 4.99275002 0.22916253 5.40950908 -2 6 C-3.754132 5.91760895 -5.50611925 5.76901219 -7.25 5.5625 C-8.14203125 5.46066406 -9.0340625 5.35882813 -9.953125 5.25390625 C-10.62859375 5.17011719 -11.3040625 5.08632812 -12 5 C-12 4.67 -12 4.34 -12 4 C-11.21753906 3.87882812 -10.43507813 3.75765625 -9.62890625 3.6328125 C-8.11103516 3.38144531 -8.11103516 3.38144531 -6.5625 3.125 C-5.55316406 2.96257812 -4.54382813 2.80015625 -3.50390625 2.6328125 C-2.67761719 2.42398438 -1.85132813 2.21515625 -1 2 C-0.67 1.34 -0.34 0.68 0 0 Z " fill="#0D63BB" transform="translate(135,122)"/>
<path d="M0 0 C10.56 0 21.12 0 32 0 C32 8.91 32 17.82 32 27 C31.01 26.67 30.02 26.34 29 26 C29.66 26 30.32 26 31 26 C30.8612119 22.39552566 30.71276065 18.79151288 30.5625 15.1875 C30.52318359 14.16333984 30.48386719 13.13917969 30.44335938 12.08398438 C30.40146484 11.10107422 30.35957031 10.11816406 30.31640625 9.10546875 C30.27974854 8.19949951 30.24309082 7.29353027 30.20532227 6.36010742 C30.0791795 3.84951218 30.0791795 3.84951218 29 1 C19.43 1 9.86 1 0 1 C0 0.67 0 0.34 0 0 Z " fill="#4785C5" transform="translate(496,126)"/>
<path d="M0 0 C0.33 0 0.66 0 1 0 C1.33 11.55 1.66 23.1 2 35 C0.68 35 -0.64 35 -2 35 C-1.34 23.45 -0.68 11.9 0 0 Z " fill="#4986CA" transform="translate(394,130)"/>
<path d="M0 0 C1.24040039 0.07831055 1.24040039 0.07831055 2.50585938 0.15820312 C4.52515478 0.28659763 6.54389629 0.42365424 8.5625 0.5625 C8.5625 0.8925 8.5625 1.2225 8.5625 1.5625 C5.66700497 1.7579384 2.77141002 1.94411395 -0.125 2.125 C-0.94162109 2.18107422 -1.75824219 2.23714844 -2.59960938 2.29492188 C-6.73264123 2.54591571 -10.39574282 2.67377743 -14.4375 1.5625 C-15.67509823 5.27529469 -15.79358897 8.87556346 -16 12.75 C-16.04318359 13.49958984 -16.08636719 14.24917969 -16.13085938 15.02148438 C-16.23672685 16.86828375 -16.3375976 18.71536834 -16.4375 20.5625 C-16.7675 20.5625 -17.0975 20.5625 -17.4375 20.5625 C-17.46638514 17.41668577 -17.48425923 14.27090531 -17.5 11.125 C-17.50837891 10.22716797 -17.51675781 9.32933594 -17.52539062 8.40429688 C-17.52861328 7.55029297 -17.53183594 6.69628906 -17.53515625 5.81640625 C-17.54301147 4.63026733 -17.54301147 4.63026733 -17.55102539 3.42016602 C-17.4375 1.5625 -17.4375 1.5625 -16.4375 0.5625 C-10.85469842 -0.54525695 -5.65633215 -0.39653578 0 0 Z " fill="#6399D9" transform="translate(124.4375,126.4375)"/>
<path d="M0 0 C0.99 0 1.98 0 3 0 C3.19555932 2.72880461 3.38170447 5.45771069 3.5625 8.1875 C3.61857422 8.95642578 3.67464844 9.72535156 3.73242188 10.51757812 C3.99141557 14.54061353 4.06573607 18.06072372 3 22 C2.01 21.67 1.02 21.34 0 21 C0 14.07 0 7.14 0 0 Z " fill="#296BC6" transform="translate(132,193)"/>
<path d="M0 0 C0.33 0.99 0.66 1.98 1 3 C0.54625 3.391875 0.0925 3.78375 -0.375 4.1875 C-2.27642919 6.30832487 -3.06204028 8.33042235 -4 11 C-4.99 11 -5.98 11 -7 11 C-7 11.66 -7 12.32 -7 13 C-9.31 13.66 -11.62 14.32 -14 15 C-13.67 14.01 -13.34 13.02 -13 12 C-12.34 12 -11.68 12 -11 12 C-11 11.34 -11 10.68 -11 10 C-9.68 10 -8.36 10 -7 10 C-7.33 8.35 -7.66 6.7 -8 5 C-6.35 5 -4.7 5 -3 5 C-3 4.34 -3 3.68 -3 3 C-1.5 1.375 -1.5 1.375 0 0 Z " fill="#E74444" transform="translate(572,317)"/>
<path d="M0 0 C13.53 0 27.06 0 41 0 C41 0.33 41 0.66 41 1 C39.86981445 1.0093457 38.73962891 1.01869141 37.57519531 1.02832031 C33.37785579 1.06822392 29.18124896 1.13398326 24.984375 1.20751953 C23.16871561 1.2357271 21.35293348 1.25694274 19.53710938 1.27099609 C16.92514211 1.29242909 14.31465026 1.33907885 11.703125 1.390625 C10.89256653 1.39185364 10.08200806 1.39308228 9.24688721 1.39434814 C5.49741247 1.49156815 3.43038038 1.65520006 0.45605469 4.03808594 C-0.02444336 4.68551758 -0.50494141 5.33294922 -1 6 C-1.33 5.01 -1.66 4.02 -2 3 C-1.34 3 -0.68 3 0 3 C0 2.01 0 1.02 0 0 Z " fill="#75AFE6" transform="translate(242,127)"/>
<path d="M0 0 C1.33973877 0.00616333 1.33973877 0.00616333 2.70654297 0.01245117 C3.70234375 0.01374023 4.69814453 0.0150293 5.72412109 0.01635742 C6.78824219 0.02924805 7.85236328 0.04213867 8.94873047 0.05541992 C10.02574219 0.06186523 11.10275391 0.06831055 12.21240234 0.07495117 C20.77697521 0.15666445 29.28797499 0.53997535 37.82373047 1.24291992 C37.82373047 1.57291992 37.82373047 1.90291992 37.82373047 2.24291992 C28.57460591 2.85515512 19.34531771 3.34469741 10.07373047 3.36791992 C8.96795654 3.3746875 8.96795654 3.3746875 7.83984375 3.3815918 C3.7305855 3.37026372 -0.1453405 3.0415002 -4.17626953 2.24291992 C-2.17626953 0.24291992 -2.17626953 0.24291992 0 0 Z " fill="#6DA4DE" transform="translate(139.17626953125,125.757080078125)"/>
<path d="M0 0 C0.66 0 1.32 0 2 0 C2.19600577 2.22843488 2.38146569 4.45779893 2.5625 6.6875 C2.66691406 7.92886719 2.77132812 9.17023438 2.87890625 10.44921875 C2.98493841 13.55835533 2.77228525 16.00810972 2 19 C1.34 19 0.68 19 0 19 C0 12.73 0 6.46 0 0 Z " fill="#2767C0" transform="translate(246,166)"/>
<path d="M0 0 C0.33 0.66 0.66 1.32 1 2 C0.06421005 4.35981813 -0.93347808 6.69631264 -2 9 C-2.66 9 -3.32 9 -4 9 C-3.34 10.98 -2.68 12.96 -2 15 C-3.65 13.68 -5.3 12.36 -7 11 C-6.62403791 8.21788056 -6.32681541 6.4120716 -4.5625 4.1875 C-3 3 -3 3 -1 3 C-0.67 2.01 -0.34 1.02 0 0 Z " fill="#5088CD" transform="translate(319,157)"/>
<path d="M0 0 C11.55 0 23.1 0 35 0 C35 0.33 35 0.66 35 1 C34.24380371 1.02505615 33.48760742 1.0501123 32.70849609 1.07592773 C29.26384541 1.19236886 25.81943592 1.31487662 22.375 1.4375 C20.59029297 1.49647461 20.59029297 1.49647461 18.76953125 1.55664062 C17.61582031 1.59853516 16.46210937 1.64042969 15.2734375 1.68359375 C13.68668213 1.73858032 13.68668213 1.73858032 12.06787109 1.79467773 C8.95468149 1.92607937 8.95468149 1.92607937 5.79541016 2.70727539 C4.8729248 2.80387451 3.95043945 2.90047363 3 3 C2.01 2.01 1.02 1.02 0 0 Z " fill="#D80E0F" transform="translate(48,330)"/>
<path d="M0 0 C1.32 0 2.64 0 4 0 C4.33 0.99 4.66 1.98 5 3 C20.84 3.495 20.84 3.495 37 4 C37 4.33 37 4.66 37 5 C32.3736342 5.1237709 27.74823539 5.21441516 23.12060547 5.2746582 C21.54719249 5.29977448 19.97389588 5.33387472 18.40087891 5.37719727 C16.13675228 5.43798399 13.87416978 5.46623582 11.609375 5.48828125 C10.55759064 5.52699089 10.55759064 5.52699089 9.48455811 5.56648254 C7.48339844 5.56762695 7.48339844 5.56762695 4 5 C1.52441406 2.46948242 1.52441406 2.46948242 0 0 Z " fill="#84ABD3" transform="translate(333,188)"/>
<path d="M0 0 C-0.33 0.66 -0.66 1.32 -1 2 C-10.39355936 2.14256667 -19.64072209 1.72492332 -29 1 C-29 0.67 -29 0.34 -29 0 C-6.37185166 -1.84989242 -6.37185166 -1.84989242 0 0 Z " fill="#5496D7" transform="translate(208,127)"/>
<path d="M0 0 C2.475 0.495 2.475 0.495 5 1 C5.02892385 5.12498538 5.04677267 9.24994485 5.0625 13.375 C5.07087891 14.550625 5.07925781 15.72625 5.08789062 16.9375 C5.09111328 18.05898437 5.09433594 19.18046875 5.09765625 20.3359375 C5.10289307 21.37282715 5.10812988 22.4097168 5.11352539 23.47802734 C5 26 5 26 4 28 C2.68 27.67 1.36 27.34 0 27 C0.66 25.68 1.32 24.36 2 23 C2.66 23 3.32 23 4 23 C4 16.07 4 9.14 4 2 C2.68 2 1.36 2 0 2 C0 1.34 0 0.68 0 0 Z " fill="#6B9BC9" transform="translate(396,165)"/>
<path d="M0 0 C0.33 0.66 0.66 1.32 1 2 C1.99 2.33 2.98 2.66 4 3 C3.34 3 2.68 3 2 3 C1.7525 3.598125 1.505 4.19625 1.25 4.8125 C-0.16370012 7.28647521 -1.65055383 8.43370255 -4 10 C-5.5625 8.1875 -5.5625 8.1875 -7 6 C-6.67 5.01 -6.34 4.02 -6 3 C-4.35 3 -2.7 3 -1 3 C-0.67 2.01 -0.34 1.02 0 0 Z " fill="#327BCF" transform="translate(312,135)"/>
<path d="M0 0 C0.33 0 0.66 0 1 0 C1 3.63 1 7.26 1 11 C1.66 11 2.32 11 3 11 C3.33 12.65 3.66 14.3 4 16 C4.66 16 5.32 16 6 16 C6 17.65 6 19.3 6 21 C6.66 21.33 7.32 21.66 8 22 C7.01 22 6.02 22 5 22 C-0.39388048 16.3903643 -0.19510814 9.74134957 -0.0703125 2.4140625 C-0.04710937 1.61742187 -0.02390625 0.82078125 0 0 Z " fill="#E43636" transform="translate(37,305)"/>
<path d="M0 0 C1.32 0.33 2.64 0.66 4 1 C1.375 5.875 1.375 5.875 -2 7 C-4.3406065 6.72230092 -6.67624308 6.39460023 -9 6 C-8.34 4.35 -7.68 2.7 -7 1 C-6.34 1.33 -5.68 1.66 -5 2 C-5 2.33 -5 2.66 -5 3 C-3.35 3.33 -1.7 3.66 0 4 C0 2.68 0 1.36 0 0 Z " fill="#2E71BF" transform="translate(450,160)"/>
<path d="M0 0 C0.33 0.66 0.66 1.32 1 2 C1.5775 2.268125 2.155 2.53625 2.75 2.8125 C5.75302926 4.39743211 7.73980783 6.48867536 10 9 C10 9.66 10 10.32 10 11 C10.66 11.33 11.32 11.66 12 12 C11.01 12.33 10.02 12.66 9 13 C8.566875 12.360625 8.13375 11.72125 7.6875 11.0625 C6.08760823 8.73253997 6.08760823 8.73253997 3 8 C1.8125 5.4375 1.8125 5.4375 1 3 C0.34 3 -0.32 3 -1 3 C-0.67 2.01 -0.34 1.02 0 0 Z " fill="#4E83C9" transform="translate(299,204)"/>
<path d="M0 0 C0.68489252 2.31151227 0.9967146 4.13470138 0.9375 6.5625 C0.78998225 9.26259624 0.78998225 9.26259624 3 12 C0 14 0 14 -4 14 C-3.855625 13.43667969 -3.71125 12.87335938 -3.5625 12.29296875 C-2.80034742 9.18613844 -2.15587205 6.0565455 -1.5 2.92578125 C-1 1 -1 1 0 0 Z " fill="#0561BF" transform="translate(476,143)"/>
<path d="M0 0 C0.51171875 2.6015625 0.51171875 2.6015625 0.6875 5.625 C0.78611328 7.12933594 0.78611328 7.12933594 0.88671875 8.6640625 C0.92410156 9.43492187 0.96148437 10.20578125 1 11 C0.01 10.67 -0.98 10.34 -2 10 C-2 7.36 -2 4.72 -2 2 C-7.94 1.01 -7.94 1.01 -14 0 C-14 -0.33 -14 -0.66 -14 -1 C-12.23086176 -1.22226864 -10.45955629 -1.42733873 -8.6875 -1.625 C-7.70136719 -1.74101562 -6.71523438 -1.85703125 -5.69921875 -1.9765625 C-3 -2 -3 -2 0 0 Z " fill="#2D62A8" transform="translate(478,142)"/>
<path d="M0 0 C0.33 0 0.66 0 1 0 C1 3.63 1 7.26 1 11 C1.66 11 2.32 11 3 11 C2.67 11.99 2.34 12.98 2 14 C-1.96 14 -5.92 14 -10 14 C-10 13.34 -10 12.68 -10 12 C-8.906875 12.020625 -7.81375 12.04125 -6.6875 12.0625 C-3.05615809 12.18544452 -3.05615809 12.18544452 0 11 C0 7.37 0 3.74 0 0 Z " fill="#5C8FCD" transform="translate(375,216)"/>
<path d="M0 0 C1.32 0.33 2.64 0.66 4 1 C2.1875 3.0625 2.1875 3.0625 -1 5 C-4.74405624 5.15444898 -8.35165984 4.86923541 -12 4 C-12.33 3.34 -12.66 2.68 -13 2 C-8.71 2 -4.42 2 0 2 C0 1.34 0 0.68 0 0 Z " fill="#0B56B7" transform="translate(220,228)"/>
<path d="M0 0 C0.33 0 0.66 0 1 0 C1 7.92 1 15.84 1 24 C0.34 24.33 -0.32 24.66 -1 25 C-1.66 24.34 -2.32 23.68 -3 23 C-2.34 22.67 -1.68 22.34 -1 22 C-0.67 14.74 -0.34 7.48 0 0 Z " fill="#5C8BC2" transform="translate(489,161)"/>
<path d="M0 0 C1.1482685 2.296537 1.11561175 3.58313167 1.09765625 6.1328125 C1.09282227 7.34130859 1.09282227 7.34130859 1.08789062 8.57421875 C1.07951172 9.41597656 1.07113281 10.25773438 1.0625 11.125 C1.05798828 11.97449219 1.05347656 12.82398438 1.04882812 13.69921875 C1.03702874 15.79950909 1.01909306 17.8997633 1 20 C-0.32 20.33 -1.64 20.66 -3 21 C-3 20.34 -3 19.68 -3 19 C-2.34 19 -1.68 19 -1 19 C-1.01160156 17.71222656 -1.02320313 16.42445313 -1.03515625 15.09765625 C-1.0445327 13.41927228 -1.05363305 11.74088674 -1.0625 10.0625 C-1.07506836 8.78729492 -1.07506836 8.78729492 -1.08789062 7.48632812 C-1.09111328 6.67744141 -1.09433594 5.86855469 -1.09765625 5.03515625 C-1.10289307 4.2862915 -1.10812988 3.53742676 -1.11352539 2.76586914 C-1 1 -1 1 0 0 Z " fill="#81AFDD" transform="translate(210,132)"/>
<path d="M0 0 C0.66 0.99 1.32 1.98 2 3 C1.67 3.99 1.34 4.98 1 6 C0.46890625 5.84660156 -0.0621875 5.69320312 -0.609375 5.53515625 C-3.49019244 4.89026738 -6.30704975 4.66142013 -9.25 4.4375 C-10.32765625 4.35371094 -11.4053125 4.26992187 -12.515625 4.18359375 C-13.33546875 4.12300781 -14.1553125 4.06242188 -15 4 C-15 3.67 -15 3.34 -15 3 C-10.38 3 -5.76 3 -1 3 C-0.67 2.01 -0.34 1.02 0 0 Z " fill="#3A7CC4" transform="translate(219,162)"/>
<path d="M0 0 C0.79664062 0.24556641 0.79664062 0.24556641 1.609375 0.49609375 C4.53876764 1.11356377 7.25822936 1.09501925 10.25 1.0625 C11.86648437 1.04896484 11.86648437 1.04896484 13.515625 1.03515625 C14.74539062 1.01775391 14.74539062 1.01775391 16 1 C16 1.66 16 2.32 16 3 C15.09636719 3.06058594 14.19273438 3.12117187 13.26171875 3.18359375 C12.08222656 3.26738281 10.90273437 3.35117188 9.6875 3.4375 C8.51574219 3.51871094 7.34398438 3.59992188 6.13671875 3.68359375 C2.97409042 3.8867371 2.97409042 3.8867371 0 5 C0 3.35 0 1.7 0 0 Z " fill="#6290E0" transform="translate(108,176)"/>
<path d="M0 0 C-3.20380017 2.13586678 -4.01939967 2.23132175 -7.6875 2.125 C-8.89986328 2.09792969 -8.89986328 2.09792969 -10.13671875 2.0703125 C-11.05904297 2.03550781 -11.05904297 2.03550781 -12 2 C-12 1.34 -12 0.68 -12 0 C-3.42857143 -1.28571429 -3.42857143 -1.28571429 0 0 Z " fill="#1361BA" transform="translate(572,279)"/>
<path d="M0 0 C2.04119788 1.61594832 4.04072937 3.2856382 6 5 C6 5.66 6 6.32 6 7 C4.35 7 2.7 7 1 7 C0.34 5.02 -0.32 3.04 -1 1 C-0.67 0.67 -0.34 0.34 0 0 Z " fill="#3479C3" transform="translate(319,224)"/>
<path d="M0 0 C2 3 2 3 2 5 C2.66 5.33 3.32 5.66 4 6 C1.69 6.33 -0.62 6.66 -3 7 C-2.67 5.35 -2.34 3.7 -2 2 C-1.34 2 -0.68 2 0 2 C0 1.34 0 0.68 0 0 Z " fill="#2B7ACC" transform="translate(451,179)"/>
<path d="M0 0 C1.65 0 3.3 0 5 0 C2.03 3.96 2.03 3.96 -1 8 C-2.2077558 4.37673261 -1.54311128 3.35853631 0 0 Z " fill="#4288C7" transform="translate(300,147)"/>
<path d="M0 0 C6.75 3.75 6.75 3.75 9 6 C8.67 6.99 8.34 7.98 8 9 C7.236875 8.21625 6.47375 7.4325 5.6875 6.625 C3.09108195 3.92742283 3.09108195 3.92742283 0 2 C0 1.34 0 0.68 0 0 Z " fill="#6DA2D8" transform="translate(317,172)"/>
<path d="M0 0 C1.32 0.33 2.64 0.66 4 1 C2.35 2.65 0.7 4.3 -1 6 C-1.99 5.67 -2.98 5.34 -4 5 C-2.68 3.35 -1.36 1.7 0 0 Z " fill="#538ECD" transform="translate(44,80)"/>
<path d="M0 0 C1.32 0 2.64 0 4 0 C4 1.98 4 3.96 4 6 C3.01 6.33 2.02 6.66 1 7 C0.34 6.34 -0.32 5.68 -1 5 C-0.34 4.67 0.32 4.34 1 4 C0.67 2.68 0.34 1.36 0 0 Z " fill="#4278D1" transform="translate(570,275)"/>
<path d="M0 0 C0.33 0 0.66 0 1 0 C1.125 7.75 1.125 7.75 0 10 C-1.32 9.67 -2.64 9.34 -4 9 C-3.34 7.68 -2.68 6.36 -2 5 C-1.34 5 -0.68 5 0 5 C0 3.35 0 1.7 0 0 Z " fill="#5590CA" transform="translate(400,183)"/>
<path d="M0 0 C2.64 0.33 5.28 0.66 8 1 C8 1.66 8 2.32 8 3 C5.36 3.33 2.72 3.66 0 4 C0 2.68 0 1.36 0 0 Z " fill="#5087CD" transform="translate(94,227)"/>
<path d="M0 0 C0.66 0 1.32 0 2 0 C2.66 2.64 3.32 5.28 4 8 C3.34 8 2.68 8 2 8 C2 7.34 2 6.68 2 6 C1.34 6 0.68 6 0 6 C0 5.34 0 4.68 0 4 C-0.66 3.67 -1.32 3.34 -2 3 C-1.34 2.01 -0.68 1.02 0 0 Z " fill="#0455C7" transform="translate(570,92)"/>
<path d="M0 0 C1.98 0 3.96 0 6 0 C4.35 1.98 2.7 3.96 1 6 C0.34 5.67 -0.32 5.34 -1 5 C-0.67 3.35 -0.34 1.7 0 0 Z " fill="#5C99D0" transform="translate(292,155)"/>
<path d="M0 0 C0.33 0 0.66 0 1 0 C1.33 3.63 1.66 7.26 2 11 C1.01 10.67 0.02 10.34 -1 10 C-0.67 6.7 -0.34 3.4 0 0 Z " fill="#709FD9" transform="translate(477,142)"/>
<path d="M0 0 C2.64 0 5.28 0 8 0 C8 0.66 8 1.32 8 2 C5.6875 2.6875 5.6875 2.6875 3 3 C1.1875 1.5625 1.1875 1.5625 0 0 Z " fill="#E94749" transform="translate(48,330)"/>
<path d="M0 0 C0.99 0 1.98 0 3 0 C2.67 0.66 2.34 1.32 2 2 C1.32650839 3.66392045 0.6590841 5.33032028 0 7 C-0.66 7 -1.32 7 -2 7 C-2 5.35 -2 3.7 -2 2 C-1.34 2 -0.68 2 0 2 C0 1.34 0 0.68 0 0 Z " fill="#2572C6" transform="translate(396,123)"/>
</svg>
